<svg xmlns="http://www.w3.org/2000/svg" width="25.403" height="15.878" viewBox="0 0 25.403 15.878">
  <g id="behanceW" transform="translate(6 -97.731)">
    <g id="Group_439" data-name="Group 439" transform="translate(-6 97.731)">
      <g id="Group_438" data-name="Group 438">
        <path id="Path_362" data-name="Path 362" d="M10.451,103.156a3.81,3.81,0,0,0,1.2-.88,3.417,3.417,0,0,0,.726-2.282,3.9,3.9,0,0,0-.719-2.364,4.845,4.845,0,0,0-4.07-1.651H0v15.486H7.074a11.062,11.062,0,0,0,2.218-.208,4.363,4.363,0,0,0,1.774-.778,4.294,4.294,0,0,0,1.111-1.218,4.474,4.474,0,0,0,.7-2.469,4.063,4.063,0,0,0-.611-2.269A3.529,3.529,0,0,0,10.451,103.156ZM3.13,98.669H6.547A6.024,6.024,0,0,1,8.4,98.91a1.389,1.389,0,0,1,.843,1.432,1.458,1.458,0,0,1-.638,1.359,3.2,3.2,0,0,1-1.661.384H3.13Zm5.4,9.837a3.742,3.742,0,0,1-1.591.273H3.13v-4.13H6.994a4.033,4.033,0,0,1,1.572.26,1.661,1.661,0,0,1,1,1.662A1.947,1.947,0,0,1,8.533,108.506Z" transform="translate(0 -95.979)" fill="#fff"/>
        <rect id="Rectangle_162" data-name="Rectangle 162" width="6.728" height="1.928" transform="translate(16.234 0.722)" fill="#fff"/>
        <path id="Path_363" data-name="Path 363" d="M291.284,175.777a5.525,5.525,0,0,0-.927-2.368,4.674,4.674,0,0,0-2-1.694,6.633,6.633,0,0,0-2.731-.537,5.652,5.652,0,0,0-4.151,1.588,6.16,6.16,0,0,0-1.6,4.567q0,3.175,1.774,4.584a6.372,6.372,0,0,0,4.089,1.408,5.691,5.691,0,0,0,4.368-1.669,3.757,3.757,0,0,0,1.124-2.071h-3.1a2.5,2.5,0,0,1-.626.788,2.6,2.6,0,0,1-1.683.524,3.112,3.112,0,0,1-1.675-.432,2.736,2.736,0,0,1-1.216-2.415h8.458A14.58,14.58,0,0,0,291.284,175.777Zm-8.281.3a3.1,3.1,0,0,1,.81-1.772,2.441,2.441,0,0,1,1.812-.656,2.7,2.7,0,0,1,1.8.616,2.5,2.5,0,0,1,.808,1.812Z" transform="translate(-265.985 -167.447)" fill="#fff"/>
      </g>
    </g>
  </g>
</svg>
