<svg id="Group_439" data-name="Group 439" xmlns="http://www.w3.org/2000/svg" width="29" height="18.126" viewBox="0 0 29 18.126">
  <g id="Group_438" data-name="Group 438">
    <path id="Path_362" data-name="Path 362" d="M11.931,104.172a4.349,4.349,0,0,0,1.369-1,3.9,3.9,0,0,0,.828-2.6,4.457,4.457,0,0,0-.821-2.7q-1.37-1.838-4.646-1.885H0v17.679H8.075a12.628,12.628,0,0,0,2.532-.237,4.98,4.98,0,0,0,2.025-.888,4.9,4.9,0,0,0,1.269-1.39,5.108,5.108,0,0,0,.8-2.819,4.638,4.638,0,0,0-.7-2.59A4.028,4.028,0,0,0,11.931,104.172ZM3.573,99.05h3.9a6.877,6.877,0,0,1,2.119.276,1.586,1.586,0,0,1,.963,1.635,1.664,1.664,0,0,1-.729,1.552,3.656,3.656,0,0,1-1.9.439H3.573Zm6.168,11.229a4.272,4.272,0,0,1-1.816.312H3.573v-4.715H7.985a4.6,4.6,0,0,1,1.795.3,1.9,1.9,0,0,1,1.14,1.9A2.222,2.222,0,0,1,9.741,110.279Z" transform="translate(0 -95.979)" fill="#737373"/>
    <rect id="Rectangle_162" data-name="Rectangle 162" width="7.68" height="2.201" transform="translate(18.533 0.825)" fill="#737373"/>
    <path id="Path_363" data-name="Path 363" d="M292.9,176.428a6.308,6.308,0,0,0-1.059-2.7,5.336,5.336,0,0,0-2.288-1.934,7.572,7.572,0,0,0-3.118-.613,6.452,6.452,0,0,0-4.738,1.813,7.032,7.032,0,0,0-1.825,5.213q0,3.624,2.025,5.233a7.274,7.274,0,0,0,4.668,1.608,6.5,6.5,0,0,0,4.987-1.905,4.289,4.289,0,0,0,1.283-2.364H289.3a2.853,2.853,0,0,1-.714.9,2.962,2.962,0,0,1-1.921.6,3.552,3.552,0,0,1-1.912-.493,3.123,3.123,0,0,1-1.388-2.757h9.656A16.644,16.644,0,0,0,292.9,176.428Zm-9.453.339a3.543,3.543,0,0,1,.924-2.023,2.786,2.786,0,0,1,2.068-.749,3.077,3.077,0,0,1,2.057.7,2.859,2.859,0,0,1,.923,2.068Z" transform="translate(-264.019 -166.919)" fill="#737373"/>
  </g>
</svg>
