<svg xmlns="http://www.w3.org/2000/svg" xmlns:xlink="http://www.w3.org/1999/xlink" width="1920" height="1080" viewBox="0 0 1920 1080">
  <defs>
    <linearGradient id="linear-gradient" x1="1.124" y1="-0.299" x2="0.49" y2="0.469" gradientUnits="objectBoundingBox">
      <stop offset="0" stop-color="red"/>
      <stop offset="0.448"/>
      <stop offset="1" stop-color="#100"/>
    </linearGradient>
    <linearGradient id="linear-gradient-2" x1="0.031" x2="0.96" y2="0.844" gradientUnits="objectBoundingBox">
      <stop offset="0" stop-color="#720000"/>
      <stop offset="0.318"/>
      <stop offset="0.602" stop-color="#1f0000"/>
      <stop offset="1" stop-color="#700000"/>
    </linearGradient>
    <filter id="Path_77" x="-174.469" y="-300.395" width="1732.606" height="1816.162" filterUnits="userSpaceOnUse">
      <feOffset dx="10" dy="3" input="SourceAlpha"/>
      <feGaussianBlur stdDeviation="49.5" result="blur"/>
      <feFlood flood-color="#ff0808" flood-opacity="0.502"/>
      <feComposite operator="in" in2="blur"/>
      <feComposite in="SourceGraphic"/>
    </filter>
    <clipPath id="clip-ODIN_logo_12">
      <rect width="1920" height="1080"/>
    </clipPath>
  </defs>
  <g id="ODIN_logo_12" data-name="ODIN_logo – 12" clip-path="url(#clip-ODIN_logo_12)">
    <rect width="1920" height="1080" fill="url(#linear-gradient)"/>
    <g transform="matrix(1, 0, 0, 1, 0, 0)" filter="url(#Path_77)">
      <path id="Path_77-2" data-name="Path 77" d="M2327.549,1632.965s.047,176.907,0,405.605c-.017,78.685,1.2,161.338,0,247.7-.534,38.355-17.374,77.591-28.581,117.656-42.8,153.022,12.385,337.488,28.581,588.283C2760.3,2995.3,3438,3266.28,3655.888,3095.931c163.047-127.471-3.524-849.99-362.259-1137.862C2891.641,1635.486,2327.549,1632.965,2327.549,1632.965Z" transform="translate(-2319 -1787.86)" fill="url(#linear-gradient-2)"/>
    </g>
  </g>
</svg>
