<svg xmlns="http://www.w3.org/2000/svg" width="19.996" height="20" viewBox="0 0 19.996 20">
  <g id="instagram" transform="translate(0.5 0.5)">
    <path id="Path_5" data-name="Path 5" d="M19.4,5.586a6.943,6.943,0,0,0-.442-2.305A4.867,4.867,0,0,0,16.175.5a6.96,6.96,0,0,0-2.3-.442C12.853.011,12.53,0,9.95,0s-2.9.011-3.916.056A6.945,6.945,0,0,0,3.73.5,4.636,4.636,0,0,0,2.045,1.6,4.678,4.678,0,0,0,.95,3.277a6.961,6.961,0,0,0-.442,2.3C.46,6.6.449,6.922.449,9.5S.46,12.4.5,13.418a6.942,6.942,0,0,0,.442,2.305,4.866,4.866,0,0,0,2.78,2.78,6.962,6.962,0,0,0,2.305.442c1.013.045,1.336.056,3.916.056s2.9-.011,3.916-.056a6.941,6.941,0,0,0,2.3-.442,4.86,4.86,0,0,0,2.78-2.78,6.966,6.966,0,0,0,.442-2.305c.045-1.013.056-1.336.056-3.916s0-2.9-.048-3.916Zm-1.711,7.757a5.208,5.208,0,0,1-.327,1.763,3.152,3.152,0,0,1-1.8,1.8,5.226,5.226,0,0,1-1.763.327c-1,.045-1.3.056-3.838.056s-2.839-.011-3.838-.056a5.205,5.205,0,0,1-1.763-.327A2.924,2.924,0,0,1,3.262,16.2a2.954,2.954,0,0,1-.709-1.091,5.227,5.227,0,0,1-.327-1.763c-.045-1-.056-1.3-.056-3.838s.011-2.839.056-3.838a5.205,5.205,0,0,1,.327-1.763,2.888,2.888,0,0,1,.713-1.091,2.949,2.949,0,0,1,1.091-.709A5.23,5.23,0,0,1,6.12,1.782c1-.045,1.3-.056,3.838-.056s2.839.011,3.838.056a5.208,5.208,0,0,1,1.763.327,2.922,2.922,0,0,1,1.091.709,2.953,2.953,0,0,1,.709,1.091,5.229,5.229,0,0,1,.327,1.763c.045,1,.056,1.3.056,3.838s-.011,2.832-.056,3.834Zm0,0" transform="translate(-0.449 0)" fill="#737373" stroke="#737373" stroke-width="1"/>
    <path id="Path_6" data-name="Path 6" d="M129.83,124.5a4.881,4.881,0,1,0,4.881,4.881A4.882,4.882,0,0,0,129.83,124.5Zm0,8.047A3.166,3.166,0,1,1,133,129.381,3.167,3.167,0,0,1,129.83,132.547Zm0,0" transform="translate(-120.328 -119.879)" fill="#737373" stroke="#737373" stroke-width="1"/>
  </g>
</svg>
