<svg xmlns="http://www.w3.org/2000/svg" width="76.239" height="65.404" viewBox="0 0 76.239 65.404">
  <g id="Group_166" transform="translate(-371.796 -318.497)">
    <path id="Path_3" d="M403.7,334.8" fill="#fff"/>
    <g id="Group_437" data-name="Group 437">
      <g id="Group_436" data-name="Group 436">
        <path id="Path_361" data-name="Path 361" d="M394.7,357.6A26.3,26.3,0,1,1,421,383.9,26.079,26.079,0,0,1,394.7,357.6Zm41,0c0-9-6.5-15-14.7-15s-14.7,6-14.7,15,6.5,15,14.7,15S435.7,366.7,435.7,357.6Z" fill="#fff"/>
      </g>
      <g id="Group_1" transform="translate(368.909 312.223)">
        <path id="Path_1" d="M79.1,27.4c.1.2-.1.5-.4.5h-.2l-4-1L70.8,26h0a27.316,27.316,0,0,0-42.7,9.8.481.481,0,0,1-.6.2c-.1,0-.1-.1-.2-.1L10.9,17.6a.608.608,0,0,1,0-.8c.1-.1.3-.2.4-.1,23.5.6,31.5.8,31.6.8s0-.1,0-.1h0L9.3,14.6a2.968,2.968,0,0,1-1.9-1l-4-4.5a1.565,1.565,0,0,1,.1-2.4,1.792,1.792,0,0,1,1.4-.4l61.7,7.1,2.2.3h0A9.326,9.326,0,0,1,75,20l.3,1.2h0v.3h0l-.1.3.7.3.7.3h0a8.016,8.016,0,0,1,1.3,1.9A11.72,11.72,0,0,1,79.1,27.4Z" fill="#fff"/>
        <path id="Path_2" d="M69.1,17.2c-.3,1.3-2.6,1.8-5.1,1.1-2.2-.5-3.8-1.8-4-2.9l9,1.1A.821.821,0,0,1,69.1,17.2Z" fill="#e81e23"/>
      </g>
    </g>
  </g>
</svg>
