<?xml version="1.0" encoding="utf-8"?>
<!-- Generator: Adobe Illustrator 23.0.1, SVG Export Plug-In . SVG Version: 6.00 Build 0)  -->
<svg version="1.1" id="Layer_1" xmlns="http://www.w3.org/2000/svg" xmlns:xlink="http://www.w3.org/1999/xlink" x="0px" y="0px"
	 viewBox="0 0 221.3 103" style="enable-background:new 0 0 221.3 103;" xml:space="preserve">
<style type="text/css">
	.st0{enable-background:new    ;}
	.st1{fill:#FFFFFF;}
	.st2{fill:#DB131A;}
	.st3{fill:#282828;}
</style>
<g id="Group_168" transform="translate(-368.909 -307.101)">
	<g id="Group_2" transform="translate(393.187 307.101)">
		<g class="st0">
			<path class="st1" d="M2.5,50.6C2.5,33.3,16.2,20,33.1,20C50,20,63.7,33.3,63.7,50.6c0,17.3-13.7,30.6-30.6,30.6
				C16.2,81.2,2.5,67.9,2.5,50.6z M50.2,50.6c0-10.5-7.6-17.5-17.1-17.5c-9.6,0-17.1,7-17.1,17.5c0,10.5,7.6,17.5,17.1,17.5
				C42.7,68.1,50.2,61.1,50.2,50.6z"/>
			<path class="st1" d="M109.7,21.2V80H97.1v-3.9c-2.8,3.2-6.9,5.1-12.5,5.1c-11,0-20.1-9.7-20.1-22.2c0-12.5,9.1-22.2,20.1-22.2
				c5.6,0,9.7,1.9,12.5,5.1V21.2H109.7z M97.1,59c0-6.3-4.2-10.2-10-10.2c-5.8,0-10,3.9-10,10.2s4.2,10.2,10,10.2
				C92.9,69.2,97.1,65.3,97.1,59z"/>
			<path class="st1" d="M113.5,26.7c0-4.1,3.4-7.6,7.6-7.6c4.1,0,7.6,3.4,7.6,7.6s-3.4,7.6-7.6,7.6
				C116.9,34.3,113.5,30.9,113.5,26.7z M114.7,38h12.6v42h-12.6V38z"/>
			<path class="st1" d="M172.7,54.2V80h-12.6V56.1c0-5.2-3.3-7.6-7.3-7.6c-4.6,0-7.8,2.7-7.8,8.7V80h-12.6V38H145v3.9
				c2.3-3.1,6.5-5.1,12-5.1C165.5,36.8,172.7,42.9,172.7,54.2z"/>
		</g>
		<g class="st0">
			<path class="st2" d="M176.3,73.2c0-4.4,3.6-8,8-8s8,3.6,8,8s-3.6,8-8,8S176.3,77.6,176.3,73.2z"/>
		</g>
	</g>
	<path id="Path_3" class="st1" d="M406.3,336.4"/>
	<g id="Group_1" transform="translate(368.909 312.879)">
		<path id="Path_1" class="st2" d="M89.2,24.8c0.1,0.3-0.1,0.6-0.4,0.6c-0.1,0-0.2,0-0.2,0l-4.7-1.2l-4.3-1.1c0,0,0,0,0,0
			c0,0,0,0,0,0C66,11.7,45.8,13.3,34.3,26.8c-2,2.3-3.6,5-4.9,7.8c-0.1,0.3-0.4,0.4-0.7,0.3c-0.1,0-0.1-0.1-0.2-0.1L9.4,13.3
			c-0.3-0.3-0.2-0.7,0.1-1c0.1-0.1,0.3-0.2,0.5-0.2c27.5,0.7,36.9,0.9,37,0.9s0-0.1,0-0.1c0,0,0,0,0,0L7.5,9.8
			C6.6,9.7,5.8,9.3,5.2,8.7L0.5,3.4c-0.8-0.9-0.7-2.2,0.2-2.9c0.4-0.4,1-0.6,1.6-0.5l72.2,8.3l2.5,0.3l0,0c3.5,1.1,6.2,3.8,7.3,7.4
			c0.1,0.5,0.3,0.9,0.3,1.4l0,0v0.3l0,0L84.7,18l0.8,0.4l0.8,0.4l0,0c0.6,0.7,1.1,1.5,1.6,2.3C88.5,22.3,88.9,23.5,89.2,24.8z"/>
		<path id="Path_2" class="st3" d="M77.5,12.7c-0.4,1.5-3,2.1-5.9,1.3c-2.5-0.6-4.4-2.1-4.6-3.4L77.5,12
			C77.6,12.2,77.6,12.5,77.5,12.7z"/>
	</g>
</g>
</svg>
