<svg xmlns="http://www.w3.org/2000/svg" xmlns:xlink="http://www.w3.org/1999/xlink" width="538.305" height="479.659" viewBox="0 0 538.305 479.659">
  <defs>
    <radialGradient id="radial-gradient" cx="0.433" cy="0.549" r="0.963" gradientTransform="translate(0.303) scale(0.395 1)" gradientUnits="objectBoundingBox">
      <stop offset="0" stop-color="#fff"/>
      <stop offset="1"/>
    </radialGradient>
    <linearGradient id="linear-gradient" x1="0.5" x2="0.5" y2="1" gradientUnits="objectBoundingBox">
      <stop offset="0" stop-color="#ff0a0a"/>
      <stop offset="1" stop-color="#2d0707"/>
    </linearGradient>
    <linearGradient id="linear-gradient-2" x1="757.684" y1="-107.808" x2="758.895" y2="-107.808" gradientUnits="objectBoundingBox">
      <stop offset="0" stop-color="#3d065f"/>
      <stop offset="1" stop-color="#5f27bd"/>
    </linearGradient>
    <linearGradient id="linear-gradient-3" x1="757.684" y1="-107.808" x2="758.895" y2="-107.808" gradientUnits="objectBoundingBox">
      <stop offset="0" stop-color="#fff"/>
      <stop offset="1" stop-color="#5824b0"/>
    </linearGradient>
    <linearGradient id="linear-gradient-4" x1="760.397" y1="-108.643" x2="761.608" y2="-108.643" xlink:href="#linear-gradient-2"/>
    <linearGradient id="linear-gradient-5" x1="760.397" y1="-108.643" x2="761.608" y2="-108.643" xlink:href="#linear-gradient-3"/>
    <radialGradient id="radial-gradient-2" cx="0.5" cy="0.5" r="0.5" gradientTransform="matrix(0, -1, -1, 0, 247.575, 247.563)" gradientUnits="objectBoundingBox">
      <stop offset="0" stop-color="#972a74"/>
      <stop offset="0.041" stop-color="#8a266a"/>
      <stop offset="0.194" stop-color="#601a49"/>
      <stop offset="0.35" stop-color="#3d112f"/>
      <stop offset="0.507" stop-color="#22091a"/>
      <stop offset="0.667" stop-color="#0f040b"/>
      <stop offset="0.829" stop-color="#030102"/>
      <stop offset="1"/>
    </radialGradient>
    <radialGradient id="radial-gradient-3" cx="0.589" cy="0.55" r="0.834" gradientTransform="translate(0.266) scale(0.468 1)" xlink:href="#radial-gradient"/>
    <linearGradient id="linear-gradient-6" x1="-294.431" y1="169.116" x2="-292.092" y2="169.116" gradientUnits="objectBoundingBox">
      <stop offset="0.035" stop-color="#9d9eb3"/>
      <stop offset="0.581" stop-color="#d4d1d8"/>
      <stop offset="1" stop-color="#eeebf2"/>
    </linearGradient>
    <radialGradient id="radial-gradient-4" cx="0.585" cy="0.383" r="0.989" gradientTransform="translate(0.307) scale(0.386 1)" xlink:href="#radial-gradient"/>
    <radialGradient id="radial-gradient-5" cx="0.5" cy="0.5" r="0.5" gradientUnits="objectBoundingBox">
      <stop offset="0.101" stop-color="#dc3daa"/>
      <stop offset="0.114" stop-color="#bb3198"/>
      <stop offset="0.152" stop-color="#5e0f66"/>
      <stop offset="0.179" stop-color="#500c57"/>
      <stop offset="0.241" stop-color="#37083c"/>
      <stop offset="0.313" stop-color="#230526"/>
      <stop offset="0.395" stop-color="#130314"/>
      <stop offset="0.497" stop-color="#080108"/>
      <stop offset="0.637" stop-color="#010001"/>
      <stop offset="1"/>
    </radialGradient>
    <linearGradient id="linear-gradient-7" x1="0.174" y1="0.109" x2="0.568" y2="0.581" gradientUnits="objectBoundingBox">
      <stop offset="0" stop-color="#972a74"/>
      <stop offset="0.113" stop-color="#8a2626"/>
      <stop offset="0.194" stop-color="#601a1a"/>
      <stop offset="0.35" stop-color="#3d1111"/>
      <stop offset="0.507" stop-color="#22091a"/>
      <stop offset="0.667" stop-color="#0f040b"/>
      <stop offset="0.829" stop-color="#030101"/>
      <stop offset="1"/>
    </linearGradient>
  </defs>
  <g id="Group_292" data-name="Group 292" transform="translate(-289.275 -71.885)">
    <path id="Path_10" data-name="Path 10" d="M581.166,298.468a.833.833,0,0,1-.423-1.551l2.872-1.691a.833.833,0,0,1,.846,1.436l-2.872,1.689A.832.832,0,0,1,581.166,298.468Zm5.741-3.382a.834.834,0,0,1-.423-1.551l2.872-1.691a.833.833,0,1,1,.846,1.436l-2.872,1.689A.832.832,0,0,1,586.907,295.086Zm5.743-3.384a.832.832,0,0,1-.423-1.549l2.87-1.691a.833.833,0,1,1,.846,1.434l-2.87,1.691A.834.834,0,0,1,592.65,291.7Zm5.741-3.382a.833.833,0,0,1-.423-1.551l2.872-1.689a.832.832,0,1,1,.845,1.434l-2.871,1.691A.829.829,0,0,1,598.391,288.32Zm5.743-3.382a.834.834,0,0,1-.423-1.551l2.87-1.691a.833.833,0,1,1,.846,1.436l-2.87,1.689A.832.832,0,0,1,604.134,284.938Zm5.741-3.384a.832.832,0,0,1-.422-1.549l2.869-1.691a.834.834,0,1,1,.846,1.436l-2.871,1.689A.83.83,0,0,1,609.875,281.554Zm5.743-3.382a.832.832,0,0,1-.423-1.549l2.871-1.691a.833.833,0,1,1,.846,1.434l-2.87,1.691A.83.83,0,0,1,615.618,278.172Zm5.741-3.382a.833.833,0,0,1-.423-1.551l2.872-1.689a.833.833,0,0,1,.846,1.434l-2.872,1.691A.831.831,0,0,1,621.359,274.79Zm5.741-3.382a.834.834,0,0,1-.423-1.551l2.872-1.691a.833.833,0,0,1,.846,1.436l-2.872,1.689A.832.832,0,0,1,627.1,271.408Zm5.743-3.384a.832.832,0,0,1-.423-1.549l2.871-1.691a.833.833,0,1,1,.846,1.434l-2.87,1.691A.834.834,0,0,1,632.843,268.025Zm5.743-3.382a.832.832,0,0,1-.423-1.549l2.871-1.691a.832.832,0,1,1,.845,1.434l-2.869,1.691A.83.83,0,0,1,638.586,264.642Zm5.741-3.382a.834.834,0,0,1-.423-1.551l2.87-1.689a.833.833,0,1,1,.846,1.434l-2.871,1.691A.847.847,0,0,1,644.327,261.26Zm5.741-3.382a.833.833,0,0,1-.422-1.551l2.871-1.691a.833.833,0,1,1,.846,1.436l-2.872,1.689A.831.831,0,0,1,650.068,257.878Zm4.4-4.148a.832.832,0,0,1-.833-.833v-3.332a.833.833,0,1,1,1.666,0V252.9A.832.832,0,0,1,654.472,253.73Zm0-6.664a.832.832,0,0,1-.833-.833V242.9a.833.833,0,1,1,1.666,0v3.332A.832.832,0,0,1,654.472,247.066Zm0-6.664a.832.832,0,0,1-.833-.833v-3.332a.833.833,0,1,1,1.666,0v3.332A.832.832,0,0,1,654.472,240.4Zm0-6.664a.832.832,0,0,1-.833-.833v-3.332a.833.833,0,1,1,1.666,0V232.9A.832.832,0,0,1,654.472,233.738Zm0-6.664a.832.832,0,0,1-.833-.833v-3.332a.833.833,0,1,1,1.666,0v3.332A.832.832,0,0,1,654.472,227.073Zm0-6.664a.832.832,0,0,1-.833-.833v-3.332a.833.833,0,1,1,1.666,0v3.332A.832.832,0,0,1,654.472,220.409Zm0-6.664a.832.832,0,0,1-.833-.833V209.58a.833.833,0,1,1,1.666,0v3.332A.832.832,0,0,1,654.472,213.745Zm0-6.664a.832.832,0,0,1-.833-.833v-3.332a.833.833,0,1,1,1.666,0v3.332A.832.832,0,0,1,654.472,207.081Zm0-6.664a.832.832,0,0,1-.833-.833v-.56l-1.568-.91a.834.834,0,0,1,.836-1.443l1.983,1.153a.834.834,0,0,1,.415.72v1.04A.832.832,0,0,1,654.472,200.417Zm-4.863-3.865a.842.842,0,0,1-.418-.112l-2.881-1.674a.833.833,0,1,1,.836-1.441L650.027,195a.833.833,0,0,1-.418,1.554Zm-5.763-3.347a.824.824,0,0,1-.418-.112l-2.881-1.674a.833.833,0,1,1,.836-1.441l2.88,1.674a.832.832,0,0,1-.418,1.553Zm-5.763-3.349a.824.824,0,0,1-.418-.112l-2.881-1.674a.833.833,0,1,1,.836-1.441L638.5,188.3a.832.832,0,0,1-.418,1.553Zm-5.763-3.345a.827.827,0,0,1-.418-.113l-2.879-1.674a.833.833,0,1,1,.836-1.441l2.879,1.674a.833.833,0,0,1-.418,1.554Zm-5.761-3.349a.827.827,0,0,1-.418-.113l-2.881-1.673a.834.834,0,0,1,.836-1.443l2.881,1.674a.833.833,0,0,1-.418,1.554Zm-5.763-3.349a.825.825,0,0,1-.418-.112l-2.881-1.673a.833.833,0,1,1,.836-1.441l2.881,1.671a.833.833,0,0,1-.418,1.554Zm-5.763-3.347a.824.824,0,0,1-.418-.112l-2.881-1.674a.833.833,0,1,1,.836-1.441l2.881,1.674a.832.832,0,0,1-.418,1.553Zm-5.761-3.347a.826.826,0,0,1-.418-.113l-2.881-1.673a.833.833,0,1,1,.836-1.441l2.881,1.673a.833.833,0,0,1-.418,1.554Zm-5.763-3.347a.827.827,0,0,1-.418-.113l-2.88-1.674a.833.833,0,1,1,.836-1.441l2.881,1.674a.833.833,0,0,1-.418,1.554Zm-5.763-3.349a.843.843,0,0,1-.418-.112l-2.88-1.674a.834.834,0,1,1,.836-1.443l2.881,1.674a.833.833,0,0,1-.418,1.554Zm-5.761-3.347a.824.824,0,0,1-.418-.112l-2.881-1.674a.833.833,0,1,1,.836-1.441l2.881,1.674a.832.832,0,0,1-.418,1.553Zm-5.763-3.347a.827.827,0,0,1-.418-.113l-2.881-1.674a.833.833,0,1,1,.836-1.441l2.88,1.674a.834.834,0,0,1-.418,1.554Zm-5.763-3.349a.826.826,0,0,1-.418-.113l-2.881-1.673a.833.833,0,1,1,.836-1.441l2.881,1.673a.833.833,0,0,1-.418,1.554Zm-5.763-3.347a.841.841,0,0,1-.418-.112l-2.879-1.674a.834.834,0,1,1,.836-1.443l2.879,1.674a.833.833,0,0,1-.418,1.554Zm-5.761-3.349a.825.825,0,0,1-.418-.112l-2.881-1.673a.833.833,0,1,1,.836-1.441l2.881,1.673a.832.832,0,0,1-.418,1.553Zm-5.763-3.347a.824.824,0,0,1-.418-.112l-2.881-1.674a.833.833,0,1,1,.836-1.441l2.881,1.674a.832.832,0,0,1-.418,1.553Zm-5.763-3.347a.827.827,0,0,1-.418-.113l-2.88-1.674a.833.833,0,1,1,.836-1.441l2.881,1.674a.833.833,0,0,1-.418,1.554Zm-5.761-3.347a.826.826,0,0,1-.418-.113l-2.881-1.674a.833.833,0,1,1,.836-1.441l2.881,1.674a.833.833,0,0,1-.418,1.554Z" transform="translate(172.275 42.904)" fill="#484848" style="mix-blend-mode: screen;isolation: isolate"/>
    <path id="Path_11" data-name="Path 11" d="M319.329,267.991l-2.872-1.689a.833.833,0,1,1,.846-1.434l2.871,1.689a.832.832,0,1,1-.845,1.434Zm-5.743-3.382-2.871-1.689a.833.833,0,0,1,.845-1.436l2.872,1.691a.833.833,0,1,1-.846,1.434Zm-5.743-3.382-2.871-1.691a.833.833,0,0,1,.846-1.434l2.871,1.691a.833.833,0,0,1-.846,1.434Zm-5.741-3.382-2.871-1.691a.833.833,0,1,1,.846-1.434l2.869,1.689a.833.833,0,0,1-.845,1.436Zm-5.743-3.384-2.871-1.689a.833.833,0,1,1,.846-1.434l2.871,1.689a.833.833,0,1,1-.846,1.434Zm-4.812-4.863v-3.332a.833.833,0,0,1,1.666,0V249.6a.833.833,0,0,1-1.666,0Zm0-6.664V239.6a.833.833,0,1,1,1.666,0v3.332a.833.833,0,0,1-1.666,0Zm0-6.664v-3.332a.833.833,0,0,1,1.666,0v3.332a.833.833,0,0,1-1.666,0Zm0-6.664v-3.332a.833.833,0,1,1,1.666,0v3.332a.833.833,0,0,1-1.666,0Zm0-6.664v-3.332a.833.833,0,0,1,1.666,0v3.332a.833.833,0,1,1-1.666,0Zm0-6.664v-3.332a.833.833,0,1,1,1.666,0v3.332a.833.833,0,1,1-1.666,0Zm0-6.664V205.24a.832.832,0,0,1,.415-.72l1.983-1.153a.834.834,0,0,1,.836,1.443l-1.568.911v3.892a.833.833,0,0,1-1.666,0Zm4.975-6.781a.83.83,0,0,1,.3-1.138l2.881-1.674a.833.833,0,1,1,.836,1.441l-2.881,1.674a.825.825,0,0,1-.418.112A.834.834,0,0,1,296.523,202.832Zm5.763-3.347a.83.83,0,0,1,.3-1.138l2.881-1.674a.833.833,0,1,1,.836,1.441l-2.881,1.674a.836.836,0,0,1-1.14-.3Zm5.763-3.347a.832.832,0,0,1,.3-1.14l2.881-1.674a.833.833,0,1,1,.836,1.441l-2.881,1.674a.833.833,0,0,1-1.14-.3Z" transform="translate(1.514 80.807)" fill="#3e3e3e" style="mix-blend-mode: screen;isolation: isolate"/>
    <g id="Group_252" data-name="Group 252" transform="translate(355.216 296.127)" style="mix-blend-mode: screen;isolation: isolate">
      <g id="Group_243" data-name="Group 243" transform="translate(206.717 31.97)">
        <g id="Group_241" data-name="Group 241">
          <path id="Path_12" data-name="Path 12" d="M558.985,254.092l-45.9,26.5-45.8-26.445,45.9-26.5,45.8,26.445Zm3.424.007-49.238-28.427-49.31,28.469L513.1,282.568l49.31-28.469Z" transform="translate(-445.653 -225.671)" fill="#ec0909"/>
          <path id="Path_13" data-name="Path 13" d="M508.867,273.869l-49.047-28.318,1.991-1.15,49.047,28.318Z" transform="translate(-448.345 -213.196)" fill="#ec0909"/>
          <path id="Path_14" data-name="Path 14" d="M505.452,275.841,456.4,247.523l1.991-1.15,49.047,28.318Z" transform="translate(-450.62 -211.883)" fill="#ec0909"/>
          <path id="Path_15" data-name="Path 15" d="M479.078,264.623l-26.146-15.1,1.991-1.15,26.146,15.1Z" transform="translate(-452.932 -210.548)" fill="#ec0909"/>
        </g>
        <g id="Group_242" data-name="Group 242" transform="translate(63.552 36.691)">
          <path id="Path_16" data-name="Path 16" d="M597.13,276.115l-45.9,26.5-45.8-26.443,45.9-26.5,45.8,26.445Zm3.425.007-49.238-28.428-49.311,28.469,49.238,28.427,49.311-28.469Z" transform="translate(-483.799 -247.694)" fill="#ec0909"/>
          <path id="Path_17" data-name="Path 17" d="M547.012,295.892l-49.047-28.318,1.991-1.15L549,294.743Z" transform="translate(-486.491 -235.219)" fill="#ec0909"/>
          <path id="Path_18" data-name="Path 18" d="M543.6,297.864,494.55,269.546l1.991-1.15,49.047,28.318Z" transform="translate(-488.765 -233.905)" fill="#ec0909"/>
          <path id="Path_19" data-name="Path 19" d="M517.224,286.646l-26.146-15.1,1.991-1.15,26.146,15.1Z" transform="translate(-491.078 -232.57)" fill="#ec0909"/>
        </g>
      </g>
      <g id="Group_246" data-name="Group 246" transform="translate(121.373 81.243)">
        <g id="Group_244" data-name="Group 244">
          <path id="Path_20" data-name="Path 20" d="M507.758,283.667l-45.9,26.5-45.8-26.443,45.9-26.5,45.8,26.443Zm3.425.007-49.238-28.427-49.311,28.469,49.238,28.427,49.311-28.469Z" transform="translate(-394.428 -255.246)" fill="#ec0909"/>
          <path id="Path_21" data-name="Path 21" d="M457.64,303.444l-49.047-28.317,1.991-1.15,49.047,28.317Z" transform="translate(-397.119 -242.77)" fill="#ec0909"/>
          <path id="Path_22" data-name="Path 22" d="M454.225,305.416,405.178,277.1l1.991-1.15,49.047,28.317Z" transform="translate(-399.394 -241.457)" fill="#ec0909"/>
          <path id="Path_23" data-name="Path 23" d="M427.852,294.2l-26.146-15.1,1.991-1.15,26.146,15.1Z" transform="translate(-401.706 -240.122)" fill="#ec0909"/>
        </g>
        <g id="Group_245" data-name="Group 245" transform="translate(63.552 36.691)">
          <path id="Path_24" data-name="Path 24" d="M545.9,305.692l-45.9,26.5-45.8-26.445,45.9-26.5,45.8,26.445Zm3.424.005L500.09,277.269l-49.31,28.469,49.238,28.429L549.328,305.7Z" transform="translate(-432.573 -277.269)" fill="#ec0909"/>
          <path id="Path_25" data-name="Path 25" d="M495.786,325.468,446.739,297.15,448.73,296l49.047,28.318Z" transform="translate(-435.265 -264.793)" fill="#ec0909"/>
          <path id="Path_26" data-name="Path 26" d="M492.371,327.44l-49.047-28.318,1.991-1.15,49.047,28.318Z" transform="translate(-437.539 -263.48)" fill="#ec0909"/>
          <path id="Path_27" data-name="Path 27" d="M466,316.222l-26.146-15.1,1.991-1.15,26.146,15.1Z" transform="translate(-439.852 -262.145)" fill="#ec0909"/>
        </g>
      </g>
      <g id="Group_249" data-name="Group 249" transform="translate(35.649 130.736)">
        <g id="Group_247" data-name="Group 247">
          <path id="Path_28" data-name="Path 28" d="M456.3,313.374l-45.9,26.5-45.8-26.443,45.9-26.5,45.8,26.443Zm3.425.007-49.238-28.427L361.18,313.422l49.238,28.428,49.311-28.469Z" transform="translate(-342.974 -284.953)" fill="#ec0909"/>
          <path id="Path_29" data-name="Path 29" d="M406.187,333.151l-49.047-28.317,1.991-1.15L408.178,332Z" transform="translate(-345.665 -272.478)" fill="#ec0909"/>
          <path id="Path_30" data-name="Path 30" d="M402.772,335.123l-49.047-28.318,1.991-1.15,49.048,28.318Z" transform="translate(-347.94 -271.164)" fill="#ec0909"/>
          <path id="Path_31" data-name="Path 31" d="M376.4,323.905l-26.146-15.1,1.991-1.15,26.146,15.1Z" transform="translate(-350.252 -269.829)" fill="#ec0909"/>
        </g>
        <g id="Group_248" data-name="Group 248" transform="translate(63.552 36.691)">
          <path id="Path_32" data-name="Path 32" d="M494.45,335.4l-45.9,26.5-45.8-26.445,45.9-26.5,45.8,26.445Zm3.424,0-49.238-28.427-49.31,28.469,49.238,28.429,49.31-28.471Z" transform="translate(-381.119 -306.976)" fill="#ec0909"/>
          <path id="Path_33" data-name="Path 33" d="M444.332,355.175l-49.047-28.318,1.991-1.15,49.047,28.318Z" transform="translate(-383.811 -294.5)" fill="#ec0909"/>
          <path id="Path_34" data-name="Path 34" d="M440.917,357.146,391.87,328.829l1.991-1.15L442.908,356Z" transform="translate(-386.085 -293.187)" fill="#ec0909"/>
          <path id="Path_35" data-name="Path 35" d="M414.544,345.929l-26.146-15.1,1.991-1.15,26.146,15.1Z" transform="translate(-388.398 -291.852)" fill="#ec0909"/>
        </g>
      </g>
      <g id="Group_251" data-name="Group 251">
        <path id="Path_36" data-name="Path 36" d="M512.143,213.818l16.77,9.683a2.761,2.761,0,0,0,2.5.005.761.761,0,0,0-.008-1.443l-16.77-9.683a2.767,2.767,0,0,0-2.5,0A.761.761,0,0,0,512.143,213.818ZM527.2,224.491l-16.772-9.683a2.758,2.758,0,0,0-2.5,0,.761.761,0,0,0,.008,1.443l16.77,9.683a2.762,2.762,0,0,0,2.5,0C527.9,225.537,527.892,224.891,527.2,224.491ZM523,226.92l-16.772-9.683a2.758,2.758,0,0,0-2.5-.005.761.761,0,0,0,.007,1.443l16.772,9.683a2.763,2.763,0,0,0,2.5,0A.762.762,0,0,0,523,226.92Z" transform="translate(-212.728 -202.753)" fill="#3b3b3b"/>
        <path id="Path_37" data-name="Path 37" d="M454.651,458.466,334.8,389.271c-7.894-4.557-7.934-11.949-.09-16.475L616.917,209.863c7.844-4.528,20.646-4.5,28.537.052l119.851,69.2c7.892,4.557,7.932,11.949.088,16.477L483.188,458.518C475.346,463.046,462.544,463.023,454.651,458.466Zm189.666-247.9c-7.261-4.192-19.039-4.212-26.255-.047L335.856,373.455c-7.216,4.167-7.177,10.966.083,15.159l119.849,69.2c7.261,4.192,19.039,4.213,26.255.047L764.249,294.925c7.216-4.165,7.179-10.966-.081-15.158Z" transform="translate(-328.855 -206.482)" fill="#3b3b3b"/>
        <path id="Path_38" data-name="Path 38" d="M578.667,255.4c0,.515-.718.93-1.609.928s-1.618-.42-1.619-.935.716-.93,1.609-.928S578.664,254.888,578.667,255.4Z" transform="translate(-164.622 -174.521)" fill="#3b3b3b"/>
        <g id="Group_250" data-name="Group 250" transform="translate(411.317 73.421)">
          <path id="Path_39" data-name="Path 39" d="M576,250.551c-.088,0-.175.007-.265.007l.005.933c.09,0,.177-.008.265-.008,6.677.013,12.125,3.157,12.145,7.012l0,.032,1.614,0c0-.01,0-.022,0-.032C589.745,254.13,583.569,250.564,576,250.551Z" transform="translate(-575.739 -250.551)" fill="#3b3b3b"/>
          <path id="Path_40" data-name="Path 40" d="M576.016,252.789c-.09,0-.175.013-.265.015l.005.931c.09,0,.175-.015.265-.015,3.115,0,5.659,1.474,5.668,3.272,0,.012,0,.022,0,.032l1.614,0c0-.012.005-.022.005-.032C583.292,254.683,580.023,252.8,576.016,252.789Z" transform="translate(-575.731 -249.06)" fill="#3b3b3b"/>
          <path id="Path_41" data-name="Path 41" d="M576.01,251.67c-.088,0-.175.005-.265.007l.005.933c.09,0,.177-.008.265-.008,4.895.01,8.892,2.316,8.907,5.143,0,.01,0,.02,0,.032l1.614,0,0-.032C586.518,254.407,581.8,251.68,576.01,251.67Z" transform="translate(-575.735 -249.806)" fill="#3b3b3b"/>
        </g>
        <path id="Path_42" data-name="Path 42" d="M576.536,256.613l-48.379-27.932,3.129-1.807,48.379,27.932Z" transform="translate(-196.113 -192.9)" fill="#3b3b3b"/>
      </g>
    </g>
    <g id="Group_254" data-name="Group 254" transform="translate(294.3 182.219)">
      <g id="Group_253" data-name="Group 253" transform="translate(0 37.086)" opacity="0.2">
        <path id="Path_43" data-name="Path 43" d="M465.75,466.983c8.35,0,15.929-1.826,21.915-5.283L793.007,285.947c7.99-4.615,12.574-11.915,12.572-20.031,0-8.9-5.518-17.183-15.141-22.738l-131.7-76.041a53.975,53.975,0,0,0-26.613-6.766c-8.352,0-15.929,1.828-21.915,5.283L304.863,341.409c-7.99,4.613-12.572,11.914-12.572,20.029,0,8.893,5.518,17.182,15.139,22.738l131.707,76.041A53.957,53.957,0,0,0,465.75,466.983Z" transform="translate(-292.291 -160.371)" opacity="0"/>
        <path id="Path_44" data-name="Path 44" d="M610.118,165.9,304.776,341.651c-7.675,4.433-12.024,11.4-11.987,19.108.038,8.43,5.321,16.317,14.554,21.648l125.78,72.621c.2.117,6.353,3.634,6.587,3.705a52.529,52.529,0,0,0,26.783,6,47.029,47.029,0,0,0,21.607-5.771L791.758,284.178c7.677-4.433,12.027-11.4,11.989-19.109-.038-8.428-5.323-16.317-14.556-21.647L658.272,167.834a54.7,54.7,0,0,0-9.7-4.313,56.6,56.6,0,0,0-16.65-2.722C623.638,160.718,616.048,162.474,610.118,165.9Z" transform="translate(-291.959 -160.088)" opacity="0.091"/>
        <path id="Path_45" data-name="Path 45" d="M610.03,166.144,304.69,341.9c-7.362,4.252-11.476,10.876-11.4,18.186.077,7.964,5.126,15.451,13.97,20.559L433.631,453.6c.4.233,6.184,3.5,6.656,3.647a51.012,51.012,0,0,0,26.953,5.236c6.832,0,16.4-3.432,21.3-6.261L790.51,282.413c7.364-4.252,11.479-10.878,11.4-18.188-.077-7.965-5.126-15.452-13.971-20.557L657.81,168.534a62.618,62.618,0,0,0-9.595-4.383,56.338,56.338,0,0,0-16.492-2.924C623.508,161.066,615.9,162.752,610.03,166.144Z" transform="translate(-291.628 -159.808)" opacity="0.182"/>
        <path id="Path_46" data-name="Path 46" d="M609.943,166.392,304.6,342.145c-7.047,4.07-10.928,10.356-10.816,17.265.113,7.5,4.928,14.586,13.383,19.468l126.967,73.305c.606.35,6.018,3.37,6.722,3.589a49.471,49.471,0,0,0,27.125,4.473c6.073,0,16.635-4.237,20.989-6.751L789.262,280.649c7.049-4.07,10.931-10.358,10.818-17.267-.113-7.5-4.928-14.586-13.385-19.466L657.35,169.238a72.721,72.721,0,0,0-9.491-4.452,56.016,56.016,0,0,0-16.335-3.129C623.378,161.416,615.763,163.032,609.943,166.392Z" transform="translate(-291.296 -159.53)" opacity="0.273"/>
        <path id="Path_47" data-name="Path 47" d="M609.857,166.642,304.517,342.4c-6.732,3.887-10.379,9.836-10.231,16.344.152,7.032,4.732,13.72,12.8,18.378l127.56,73.647c.806.466,5.849,3.24,6.791,3.53A47.909,47.909,0,0,0,468.729,458c5.313,0,16.87-5.04,20.68-7.239l298.6-171.876c6.734-3.889,10.381-9.838,10.233-16.345-.152-7.032-4.732-13.721-12.8-18.378L656.889,169.941a86.8,86.8,0,0,0-9.386-4.52,55.717,55.717,0,0,0-16.177-3.33C623.249,161.769,615.62,163.315,609.857,166.642Z" transform="translate(-290.965 -159.253)" opacity="0.364"/>
        <path id="Path_48" data-name="Path 48" d="M609.772,166.893,304.433,342.646c-6.421,3.707-9.833,9.318-9.648,15.424.19,6.566,4.535,12.853,12.214,17.287L435.15,449.346a72.682,72.682,0,0,0,6.861,3.474,46.379,46.379,0,0,0,27.465,2.944c4.553,0,17.107-5.843,20.372-7.727l296.92-170.908c6.421-3.707,9.833-9.318,9.648-15.424-.19-6.566-4.537-12.853-12.215-17.287L656.43,170.648c-1.639-.946-7.409-3.905-9.283-4.588a55.446,55.446,0,0,0-16.019-3.535C623.12,162.123,615.478,163.6,609.772,166.893Z" transform="translate(-290.635 -158.979)" opacity="0.455"/>
        <path id="Path_49" data-name="Path 49" d="M609.686,167.147,304.348,342.9c-6.106,3.525-9.285,8.8-9.063,14.5.228,6.1,4.34,11.987,11.629,16.2l128.744,74.33a61.187,61.187,0,0,0,6.927,3.415c8.745,3.62,19.319,4.46,27.634,2.179,3.8,0,17.343-6.644,20.064-8.217L785.521,275.371c6.106-3.525,9.285-8.8,9.062-14.5-.227-6.1-4.338-11.989-11.629-16.2L655.97,171.356c-1.366-.788-7.622-4.07-9.178-4.657a55.167,55.167,0,0,0-15.861-3.737C622.991,162.479,615.338,163.885,609.686,167.147Z" transform="translate(-290.305 -158.707)" opacity="0.545"/>
        <path id="Path_50" data-name="Path 50" d="M609.6,167.4,304.262,343.156c-5.791,3.344-8.737,8.28-8.477,13.582.265,5.635,4.142,11.122,11.043,15.108l129.337,74.672a53.039,53.039,0,0,0,7,3.357c8.942,3.5,19.7,4.075,27.8,1.414,3.037,0,17.578-7.447,19.756-8.7L784.274,273.614c5.791-3.344,8.737-8.28,8.477-13.582-.265-5.635-4.142-11.122-11.044-15.106l-126.2-72.861c-1.091-.631-7.834-4.245-9.073-4.725a54.81,54.81,0,0,0-15.7-3.94C622.862,162.837,615.2,164.173,609.6,167.4Z" transform="translate(-289.974 -158.437)" opacity="0.636"/>
        <path id="Path_51" data-name="Path 51" d="M609.516,167.661,304.178,343.414c-5.478,3.162-8.189,7.76-7.892,12.658.3,5.17,3.945,10.258,10.458,14.018l129.931,75.015a46.882,46.882,0,0,0,7.064,3.3c9.138,3.374,20.089,3.692,27.974.653,2.277,0,17.815-8.252,19.446-9.195l291.871-168c5.478-3.16,8.189-7.759,7.892-12.659-.3-5.17-3.945-10.258-10.459-14.018L655.052,172.778c-.82-.473-8.044-4.423-8.972-4.793a54.563,54.563,0,0,0-15.542-4.143C622.735,163.2,615.054,164.464,609.516,167.661Z" transform="translate(-289.645 -158.168)" opacity="0.727"/>
        <path id="Path_52" data-name="Path 52" d="M609.433,167.919,304.094,343.674c-5.163,2.981-7.64,7.241-7.307,11.737.342,4.7,3.749,9.391,9.873,12.928L437.182,443.7a42.184,42.184,0,0,0,7.132,3.239c9.338,3.251,20.475,3.309,28.146-.112,1.518,0,18.05-9.055,19.138-9.683L781.784,270.109c5.163-2.98,7.64-7.241,7.306-11.739-.34-4.7-3.749-9.391-9.873-12.927L654.594,173.492c-.546-.315-8.25-4.608-8.867-4.861-4.742-1.954-9.936-3.835-15.384-4.347C622.608,163.559,614.914,164.755,609.433,167.919Z" transform="translate(-289.316 -157.901)" opacity="0.818"/>
        <path id="Path_53" data-name="Path 53" d="M609.349,168.181,304.011,343.934c-4.848,2.8-7.092,6.723-6.721,10.818.378,4.238,3.552,8.525,9.286,11.837l131.115,75.7a38.5,38.5,0,0,0,7.2,3.18c9.535,3.127,20.86,2.924,28.316-.876.758,0,18.285-9.858,18.829-10.171l288.5-166.063c4.848-2.8,7.092-6.721,6.721-10.816-.378-4.238-3.552-8.527-9.288-11.837l-123.834-71.5c-.273-.158-8.457-4.8-8.763-4.931-4.688-1.991-9.816-3.98-15.226-4.55C622.481,163.923,614.776,165.049,609.349,168.181Z" transform="translate(-288.988 -157.637)" opacity="0.909"/>
        <path id="Path_54" data-name="Path 54" d="M473.957,442.363,779.3,266.61c9.165-5.291,8.015-14.533-2.567-20.642L645.022,169.927c-10.583-6.111-26.59-6.774-35.755-1.483L303.928,344.2c-9.165,5.291-8.015,14.533,2.566,20.644L438.2,440.882C448.783,446.991,464.792,447.654,473.957,442.363Z" transform="translate(-288.661 -157.373)"/>
      </g>
      <path id="Path_55" data-name="Path 55" d="M430.519,422.916,307.385,351.825c-13.89-8.02-12.147-22.027,3.89-31.286L600.818,153.37c16.039-9.26,40.3-10.266,54.189-2.246l123.135,71.091c13.89,8.019,12.147,22.027-3.89,31.286L484.709,420.67C468.67,429.93,444.409,430.935,430.519,422.916Z" transform="translate(-288.483 -133.05)" fill="#5a5a5a"/>
      <path id="Path_56" data-name="Path 56" d="M430.519,421.648,307.385,350.557c-6.206-3.582-9.291-8.36-9.375-13.377-.008-.443.008-10.1.048-10.543.511-5.808,4.976-2.609,13.217-7.367L600.818,152.1c16.039-9.26,40.3-10.266,54.189-2.247l123.135,71.091c6.2,3.582,9.286-2.721,9.375,2.292.008.436-.007,11.95-.045,12.389-.5,5.818-4.966,11.84-13.22,16.607L484.709,419.4C468.67,428.662,444.409,429.669,430.519,421.648Z" transform="translate(-288.483 -133.893)" fill="#1e1e1e"/>
      <path id="Path_57" data-name="Path 57" d="M430.519,415.317,307.385,344.224c-13.89-8.019-12.147-22.027,3.89-31.286L600.818,145.771c16.039-9.26,40.3-10.266,54.189-2.247l123.135,71.093c13.89,8.019,12.147,22.027-3.89,31.286l-253,146.068-36.543,21.1C468.67,422.329,444.409,423.336,430.519,415.317Z" transform="translate(-288.483 -138.111)" fill="#0d0d0d"/>
      <path id="Path_58" data-name="Path 58" d="M307.382,307.1,430.517,378.19c13.89,8.02,38.152,7.014,54.189-2.246L774.249,208.776c8.442-4.873,12.917-11.062,13.241-17,.35,6.351-4.142,13.133-13.241,18.388L484.706,377.328c-16.037,9.26-40.3,10.266-54.189,2.247L307.382,308.483c-6.579-3.8-9.645-8.94-9.351-14.283C298.3,299.04,301.374,303.63,307.382,307.1Z" transform="translate(-288.481 -102.37)" fill="url(#radial-gradient)" style="mix-blend-mode: color-dodge;isolation: isolate"/>
      <path id="Path_59" data-name="Path 59" d="M312.575,313.89,602.466,146.522c14.06-8.119,35.328-9,47.505-1.969l122.48,70.715c12.177,7.029,10.649,19.308-3.41,27.426L479.15,410.061c-14.06,8.119-35.328,9-47.505,1.969l-122.48-70.715C296.987,334.287,298.515,322.008,312.575,313.89Z" transform="translate(-286.528 -136.982)"/>
      <path id="Path_60" data-name="Path 60" d="M315.19,314.569,603.642,148.031c11.769-6.794,29.57-7.532,39.762-1.648l119.869,69.205c10.191,5.884,8.913,16.162-2.856,22.956L471.965,405.083c-11.769,6.794-29.57,7.532-39.761,1.648L312.335,337.525C302.143,331.641,303.421,321.363,315.19,314.569Z" transform="translate(-283.524 -135.247)" fill="#fff"/>
      <path id="Path_61" data-name="Path 61" d="M640.973,147.789c-9.606-5.545-25.132-5.573-34.677-.062L314.662,316.1c-9.545,5.511-9.5,14.474.11,20.021l117.092,67.6c9.6,5.545,25.13,5.573,34.675.062L758.173,235.412c9.545-5.511,9.5-14.474-.11-20.019Z" transform="translate(-282.138 -134.447)"/>
      <path id="Path_62" data-name="Path 62" d="M448.35,404.581a32.668,32.668,0,0,0,16.054-3.8L756.036,232.409c3.832-2.212,5.941-5.016,5.941-7.9,0-2.914-2.147-5.759-6.049-8.012L638.836,148.9a33.044,33.044,0,0,0-16.252-3.862,32.666,32.666,0,0,0-16.049,3.8L314.9,317.209c-3.832,2.211-5.941,5.016-5.941,7.9,0,2.916,2.149,5.761,6.049,8.012L432.1,400.72A33.05,33.05,0,0,0,448.35,404.581Z" transform="translate(-281.189 -133.499)" fill="url(#linear-gradient)"/>
      <path id="Path_63" data-name="Path 63" d="M552.252,233.786l13.422-7.749a7.264,7.264,0,0,0,3.034-5.8h0c0-2.232-1.358-3.26-3.034-2.292L552.252,225.7a7.264,7.264,0,0,0-3.034,5.8h0C549.218,233.728,550.576,234.754,552.252,233.786Z" transform="translate(-121.169 -85.179)" fill="url(#linear-gradient-2)"/>
      <path id="Path_64" data-name="Path 64" d="M552.252,233.786l13.422-7.749a7.264,7.264,0,0,0,3.034-5.8h0c0-2.232-1.358-3.26-3.034-2.292L552.252,225.7a7.264,7.264,0,0,0-3.034,5.8h0C549.218,233.728,550.576,234.754,552.252,233.786Z" transform="translate(-121.169 -85.179)" fill="url(#linear-gradient-3)"/>
      <path id="Path_65" data-name="Path 65" d="M550.73,233.043a1.685,1.685,0,0,0,.808-.258l13.423-7.749a6.5,6.5,0,0,0,2.637-5.11c0-.861-.273-1.868-1.038-1.868a1.685,1.685,0,0,0-.808.258l-13.423,7.749a6.507,6.507,0,0,0-2.636,5.111C549.694,232.039,549.966,233.043,550.73,233.043Z" transform="translate(-120.852 -84.863)"/>
      <path id="Path_66" data-name="Path 66" d="M537.87,242.09l13.422-7.749a7.267,7.267,0,0,0,3.032-5.8h0c0-2.234-1.358-3.26-3.032-2.294L537.87,234a7.262,7.262,0,0,0-3.034,5.8h0C534.836,242.03,536.194,243.057,537.87,242.09Z" transform="translate(-130.748 -79.649)" fill="url(#linear-gradient-4)"/>
      <path id="Path_67" data-name="Path 67" d="M537.87,242.09l13.422-7.749a7.267,7.267,0,0,0,3.032-5.8h0c0-2.234-1.358-3.26-3.032-2.294L537.87,234a7.262,7.262,0,0,0-3.034,5.8h0C534.836,242.03,536.194,243.057,537.87,242.09Z" transform="translate(-130.748 -79.649)" fill="url(#linear-gradient-5)"/>
      <path id="Path_68" data-name="Path 68" d="M536.347,241.346a1.7,1.7,0,0,0,.81-.258l13.422-7.747a6.505,6.505,0,0,0,2.639-5.111c0-.86-.272-1.866-1.038-1.866a1.691,1.691,0,0,0-.81.257l-13.422,7.75a6.506,6.506,0,0,0-2.637,5.111C535.311,240.341,535.583,241.346,536.347,241.346Z" transform="translate(-130.432 -79.332)"/>
      <path id="Path_69" data-name="Path 69" d="M466.449,324.784l195.616-113.44c8.254-4.765,12.722-10.788,13.22-16.605.017-.193.028-2.537.037-5.136,0,.048,0,12.082-.037,12.522-.5,5.818-4.966,11.841-13.22,16.605l-65.071,35.279Z" transform="translate(-176.296 -103.816)" fill="#3d065f" style="mix-blend-mode: color-dodge;isolation: isolate"/>
      <ellipse id="Ellipse_2" data-name="Ellipse 2" cx="30.489" cy="45.93" rx="30.489" ry="45.93" transform="translate(118.781 297.525) rotate(-67.66)" fill="url(#radial-gradient-2)" style="mix-blend-mode: color-dodge;isolation: isolate"/>
      <path id="Path_70" data-name="Path 70" d="M333.833,286.994l22.038,12.723h0c0-4.027-2.447-8.7-5.468-10.448l-11.1-6.409c-3.02-1.744-5.468.107-5.468,4.133Z" transform="translate(-264.623 -42.14)"/>
      <path id="Path_71" data-name="Path 71" d="M345.321,250.575a6.069,6.069,0,0,1,3.076.865c2.377,1.373,1.6,2.639-.067,3.7.2.215.062.54-.357.781a1.564,1.564,0,0,1-.755.16,2.771,2.771,0,0,1-.843-.13,11.216,11.216,0,0,1-2.481.27c-.635,0-1.165.293-1.148.66a2.592,2.592,0,0,0,.913,1.749c.76.713.61,1.658-.455,2.271l-1.846,1.066a1.32,1.32,0,0,1-.646.155,1.355,1.355,0,0,1-.655-.157l-9.886-5.71a.4.4,0,0,1,0-.75l1.846-1.066a4.607,4.607,0,0,1,2.251-.536,5.132,5.132,0,0,1,1.684.273,9.553,9.553,0,0,0,3.029.528H339c.621,0,1.113-.3,1.115-.663a2.524,2.524,0,0,1,.468-1.433.552.552,0,0,1,.052-.921,2,2,0,0,1,.971-.258,1.3,1.3,0,0,1,.382.052,7.172,7.172,0,0,1,3.329-.9Zm0-1.333h0a8.289,8.289,0,0,0-3.547.856c-.055,0-.108-.005-.163-.005a3.317,3.317,0,0,0-1.638.436,1.843,1.843,0,0,0-.928,1.358,1.877,1.877,0,0,0,.043.688,3.808,3.808,0,0,0-.238.79,8.214,8.214,0,0,1-2.456-.446,6.444,6.444,0,0,0-2.131-.352,5.923,5.923,0,0,0-2.917.715l-1.846,1.066a1.718,1.718,0,0,0,.005,3.059l9.886,5.71a2.653,2.653,0,0,0,1.321.335,2.625,2.625,0,0,0,1.313-.333l1.846-1.066a2.95,2.95,0,0,0,1.581-2.178,2.609,2.609,0,0,0-.881-2.221c-.042-.038-.08-.077-.117-.115a12.561,12.561,0,0,0,1.889-.222,4.3,4.3,0,0,0,.875.093,2.821,2.821,0,0,0,1.421-.338,2.152,2.152,0,0,0,1.048-1.255,3.408,3.408,0,0,0,1.539-2.654c-.023-1.095-.751-2.063-2.164-2.879a7.433,7.433,0,0,0-3.742-1.043Z" transform="translate(-268.13 -64.094)" fill="#fff"/>
      <path id="Path_72" data-name="Path 72" d="M394.362,282.7l1.3,1.223q.517-.045,1.04-.045c.362,0,.725.017,1.083.048l1.291-1.218a13.82,13.82,0,0,1,2.316.556l-.572,1.393a7.406,7.406,0,0,1,.816.4,6.018,6.018,0,0,1,.69.471l2.412-.33a4.572,4.572,0,0,1,.963,1.336l-2.111.745a2.337,2.337,0,0,1,.007,1.226l2.119.753a4.5,4.5,0,0,1-.948,1.333l-2.417-.338a5.6,5.6,0,0,1-.685.468,7.318,7.318,0,0,1-.811.4l.586,1.395a13.532,13.532,0,0,1-2.309.548l-1.3-1.223q-.517.045-1.04.045c-.362,0-.725-.017-1.083-.05l-1.291,1.22a13.825,13.825,0,0,1-2.316-.556l.571-1.393a7.42,7.42,0,0,1-.816-.4,5.884,5.884,0,0,1-.69-.472l-2.412.33a4.532,4.532,0,0,1-.963-1.336l2.111-.746a2.332,2.332,0,0,1-.007-1.225l-2.119-.753a4.5,4.5,0,0,1,.948-1.335l2.417.34a5.8,5.8,0,0,1,.685-.47,7.612,7.612,0,0,1,.811-.395l-.586-1.4a13.7,13.7,0,0,1,2.309-.546Zm2.4,6.789a4,4,0,0,0,1.959-.468,1.2,1.2,0,0,0-.012-2.276,4.355,4.355,0,0,0-3.942-.007c-1.085.626-1.078,1.644.013,2.276a4.051,4.051,0,0,0,1.981.475Zm-2.4-8.122a1.291,1.291,0,0,0-.2.015,14.861,14.861,0,0,0-2.537.6,1.332,1.332,0,0,0-.8,1.779l.108.258c-.047.03-.093.06-.138.092l-1.884-.265a1.369,1.369,0,0,0-.185-.013,1.338,1.338,0,0,0-.938.387,5.818,5.818,0,0,0-1.226,1.734,1.334,1.334,0,0,0,.77,1.8l.307.108-.288.1a1.331,1.331,0,0,0-.768,1.813,5.88,5.88,0,0,0,1.238,1.731,1.338,1.338,0,0,0,.936.383,1.3,1.3,0,0,0,.18-.012l1.883-.258.158.1-.107.262a1.331,1.331,0,0,0,.806,1.768,15.139,15.139,0,0,0,2.541.611,1.371,1.371,0,0,0,.2.015,1.325,1.325,0,0,0,.915-.365l.868-.818c.2.008.395.013.591.013s.366,0,.548-.012l.883.828a1.338,1.338,0,0,0,.913.362,1.3,1.3,0,0,0,.2-.015,15.055,15.055,0,0,0,2.537-.6,1.333,1.333,0,0,0,.8-1.781l-.108-.258c.047-.028.092-.058.138-.09l1.884.265a1.383,1.383,0,0,0,.185.012,1.331,1.331,0,0,0,.938-.386,5.821,5.821,0,0,0,1.226-1.733,1.334,1.334,0,0,0-.77-1.8l-.307-.108.288-.1a1.333,1.333,0,0,0,.768-1.814,5.9,5.9,0,0,0-1.238-1.729,1.338,1.338,0,0,0-.936-.383,1.305,1.305,0,0,0-.18.012l-1.884.258-.157-.1.107-.262a1.332,1.332,0,0,0-.806-1.768,14.982,14.982,0,0,0-2.541-.611,1.371,1.371,0,0,0-.2-.015,1.331,1.331,0,0,0-.915.363l-.868.82c-.2-.008-.395-.013-.591-.013s-.367,0-.548.012l-.883-.83a1.337,1.337,0,0,0-.913-.36Zm1.113,6.506a2.77,2.77,0,0,1,1.256-.27,2.8,2.8,0,0,1,1.293.283,2.771,2.771,0,0,1-1.258.27,2.818,2.818,0,0,1-1.291-.283Z" transform="translate(-229.581 -42.696)" fill="#fff"/>
      <path id="Path_73" data-name="Path 73" d="M352.958,262.295l3.017,1.743-5.466,3.155-3.017-1.743,5.466-3.156Zm8.05.633,3.017,1.743-8.942,5.163-3.019-1.743,8.943-5.163Zm8.05.633,3.017,1.741-12.42,7.171-3.016-1.741,12.419-7.171Zm-16.1-2.6a1.341,1.341,0,0,0-.666.178l-5.466,3.155a1.333,1.333,0,0,0,0,2.309l3.017,1.743a1.341,1.341,0,0,0,.666.178,1.279,1.279,0,0,0,.287-.032,1.327,1.327,0,0,0,.6.751l3.019,1.743a1.332,1.332,0,0,0,.666.178,1.265,1.265,0,0,0,.285-.032,1.33,1.33,0,0,0,.6.751l3.016,1.741a1.324,1.324,0,0,0,1.333,0l12.42-7.171a1.332,1.332,0,0,0,0-2.307l-3.017-1.743a1.335,1.335,0,0,0-1.333,0l-3.117,1.8a1.326,1.326,0,0,0-.583-.69l-3.017-1.743a1.335,1.335,0,0,0-1.333,0l-3.117,1.8a1.328,1.328,0,0,0-.583-.69l-3.017-1.743a1.336,1.336,0,0,0-.666-.178Z" transform="translate(-256.413 -56.288)" fill="#fff"/>
      <path id="Path_74" data-name="Path 74" d="M375.862,271.519a6.913,6.913,0,0,1,3.382.81c1.3.75,1.693,1.821,1.188,2.762a8.059,8.059,0,0,1,1.409-.122,6.92,6.92,0,0,1,3.377.808c1.863,1.076,1.873,2.814.022,3.882-1.479.855-4.327,1.095-7.064,1.095a65.845,65.845,0,0,1-6.861-.4s-2.179-6.086,1.2-8.039a6.819,6.819,0,0,1,3.342-.8Zm0-1.333v0a8.139,8.139,0,0,0-4.009.976c-4.3,2.481-1.9,9.351-1.794,9.643a1.339,1.339,0,0,0,1.1.875,67.231,67.231,0,0,0,7.019.407c3.719,0,6.246-.417,7.73-1.273a3.357,3.357,0,0,0-.022-6.191,8.193,8.193,0,0,0-3.978-.986,3.841,3.841,0,0,0-2-2.462,8.215,8.215,0,0,0-4.048-.988Z" transform="translate(-241.001 -50.145)" fill="#fff"/>
    </g>
    <g id="Group_257" data-name="Group 257" transform="translate(405.881 342.965)">
      <g id="Group_255" data-name="Group 255" transform="translate(0 2.917)">
        <path id="Path_75" data-name="Path 75" d="M442.173,302.9a26.561,26.561,0,0,1-13.25-3.144l-31.438-18.15-31.44-18.151c-4.308-2.487-6.781-6.328-6.781-10.533,0-4.748,3.12-9.271,8.56-12.412a33.935,33.935,0,0,1,16.5-4.167,26.542,26.542,0,0,1,13.245,3.142l31.438,18.151,31.44,18.151c4.31,2.487,6.781,6.326,6.781,10.533,0,4.747-3.119,9.271-8.558,12.41A33.927,33.927,0,0,1,442.173,302.9Z" transform="translate(-359.265 -236.346)" opacity="0.02"/>
        <path id="Path_76" data-name="Path 76" d="M368.269,240.891h0a32.965,32.965,0,0,1,16.071-4.043,27.016,27.016,0,0,1,11.364,2.3c.492.23,1.06.528,1.516.791l30.62,17.678L430.4,259.1l28.053,16.2a15.074,15.074,0,0,1,5.5,5.325,10.606,10.606,0,0,1,1.356,4.73c.153,4.578-2.8,9.018-8.155,12.109h0a32.976,32.976,0,0,1-16.067,4.045,27.052,27.052,0,0,1-11.367-2.3c-.493-.23-1.061-.528-1.518-.791l-30.62-17.678-2.562-1.479-28.051-16.2a15.065,15.065,0,0,1-5.5-5.326,10.606,10.606,0,0,1-1.356-4.73C359.959,248.424,362.916,243.982,368.269,240.891Z" transform="translate(-358.705 -236.012)" opacity="0.045"/>
        <path id="Path_77" data-name="Path 77" d="M368.718,241.27h0a32.015,32.015,0,0,1,15.641-3.92,26.192,26.192,0,0,1,11.047,2.267c.442.208,1.055.535,1.466.771l29.8,17.207,2.5,1.441L456.463,274.8a16.434,16.434,0,0,1,5.44,5.075,10.512,10.512,0,0,1,1.489,4.5c.31,4.408-2.486,8.765-7.752,11.8h0A31.989,31.989,0,0,1,440,300.1a26.211,26.211,0,0,1-11.051-2.269c-.442-.208-1.056-.533-1.466-.771l-29.8-17.205-2.5-1.441-27.293-15.757a16.487,16.487,0,0,1-5.44-5.076,10.539,10.539,0,0,1-1.489-4.5C360.656,248.667,363.452,244.312,368.718,241.27Z" transform="translate(-358.149 -235.677)" opacity="0.071"/>
        <path id="Path_78" data-name="Path 78" d="M369.172,241.651h0a31.04,31.04,0,0,1,15.209-3.8,25.373,25.373,0,0,1,10.731,2.237c.392.185,1.051.54,1.416.75l28.984,16.735,2.431,1.4L454.479,274.3a18.248,18.248,0,0,1,5.378,4.826,10.52,10.52,0,0,1,1.624,4.275c.466,4.242-2.169,8.512-7.349,11.5h0a31.045,31.045,0,0,1-15.208,3.8,25.413,25.413,0,0,1-10.734-2.237c-.392-.187-1.053-.54-1.418-.751l-28.982-16.734-2.432-1.4-26.533-15.319a18.235,18.235,0,0,1-5.38-4.826,10.537,10.537,0,0,1-1.624-4.273C361.355,248.911,363.992,244.641,369.172,241.651Z" transform="translate(-357.598 -235.343)" opacity="0.096"/>
        <path id="Path_79" data-name="Path 79" d="M369.632,242.029h0a30.07,30.07,0,0,1,14.778-3.675,24.563,24.563,0,0,1,10.416,2.206c.342.163,1.046.546,1.366.73l28.166,16.262,2.366,1.366L452.5,273.8a20.694,20.694,0,0,1,5.32,4.577,10.654,10.654,0,0,1,1.758,4.048c.625,4.072-1.853,8.257-6.947,11.2h0a30.083,30.083,0,0,1-14.776,3.677,24.565,24.565,0,0,1-10.418-2.208c-.343-.165-1.048-.546-1.368-.731L397.9,278.1l-2.366-1.366L369.76,261.852a20.633,20.633,0,0,1-5.32-4.577,10.659,10.659,0,0,1-1.758-4.047C362.058,249.155,364.537,244.972,369.632,242.029Z" transform="translate(-357.052 -235.009)" opacity="0.122"/>
        <path id="Path_80" data-name="Path 80" d="M370.1,242.409h0a29.137,29.137,0,0,1,14.348-3.554,23.765,23.765,0,0,1,10.1,2.176c.293.142,1.043.553,1.316.711l27.348,15.789,2.3,1.328L450.523,273.3a24.034,24.034,0,0,1,5.26,4.327,10.911,10.911,0,0,1,1.893,3.82c.785,3.905-1.536,8-6.546,10.894h0a29.112,29.112,0,0,1-14.345,3.555,23.76,23.76,0,0,1-10.1-2.177c-.293-.142-1.043-.551-1.318-.71l-27.346-15.789-2.3-1.328L370.7,261.452a24,24,0,0,1-5.261-4.328,10.891,10.891,0,0,1-1.891-3.817C362.765,249.4,365.087,245.3,370.1,242.409Z" transform="translate(-356.511 -234.675)" opacity="0.147"/>
        <path id="Path_81" data-name="Path 81" d="M370.565,242.789h0a28.132,28.132,0,0,1,13.918-3.43,22.9,22.9,0,0,1,9.783,2.144c.243.118,1.04.558,1.268.69l26.528,15.316L424.3,258.8l24.259,14a29,29,0,0,1,5.2,4.077,11.375,11.375,0,0,1,2.026,3.592c.948,3.739-1.221,7.75-6.143,10.593h0a28.142,28.142,0,0,1-13.915,3.43,22.915,22.915,0,0,1-9.786-2.144c-.243-.12-1.04-.558-1.268-.69l-26.53-15.318-2.234-1.29-24.257-14a28.816,28.816,0,0,1-5.2-4.078,11.317,11.317,0,0,1-2.026-3.59C363.474,249.643,365.642,245.631,370.565,242.789Z" transform="translate(-355.975 -234.34)" opacity="0.173"/>
        <path id="Path_82" data-name="Path 82" d="M371.039,243.168h0a27.2,27.2,0,0,1,13.488-3.309,22.086,22.086,0,0,1,9.466,2.114c.195.1,1.035.565,1.218.67l25.71,14.844,2.169,1.253,23.5,13.566a36.546,36.546,0,0,1,5.14,3.829,11.982,11.982,0,0,1,2.159,3.364c1.115,3.569-.9,7.5-5.74,10.288h0a27.171,27.171,0,0,1-13.483,3.309,22.1,22.1,0,0,1-9.47-2.114c-.195-.1-1.036-.565-1.22-.67l-25.71-14.844-2.169-1.251-23.5-13.568a36.425,36.425,0,0,1-5.141-3.827,12.007,12.007,0,0,1-2.159-3.364C364.185,249.887,366.2,245.961,371.039,243.168Z" transform="translate(-355.445 -234.007)" opacity="0.198"/>
        <path id="Path_83" data-name="Path 83" d="M371.521,243.547h0a26.242,26.242,0,0,1,13.057-3.185,21.279,21.279,0,0,1,9.15,2.084c.145.072,1.031.57,1.168.648l24.892,14.373,2.1,1.215,22.74,13.128c.69.4,4.772,2.981,5.08,3.579a7.654,7.654,0,0,1,2.294,3.135c1.285,3.4-.586,7.244-5.336,9.985h0a26.211,26.211,0,0,1-13.055,3.187,21.289,21.289,0,0,1-9.153-2.083c-.145-.073-1.031-.571-1.168-.651L398.4,274.591l-2.1-1.215-22.74-13.128c-.69-.4-4.771-2.981-5.08-3.579a7.644,7.644,0,0,1-2.294-3.136C364.9,250.133,366.769,246.291,371.521,243.547Z" transform="translate(-354.92 -233.673)" opacity="0.224"/>
        <path id="Path_84" data-name="Path 84" d="M372.006,243.928h0a25.255,25.255,0,0,1,12.625-3.064,20.465,20.465,0,0,1,8.835,2.053c.1.048,1.026.576,1.118.628l24.074,13.9,2.039,1.178,21.98,12.69a48.233,48.233,0,0,1,5.021,3.329,7.554,7.554,0,0,1,2.427,2.909c1.456,3.229-.27,6.989-4.935,9.681h0a25.247,25.247,0,0,1-12.624,3.064,20.476,20.476,0,0,1-8.837-2.053c-.1-.05-1.028-.576-1.12-.63l-24.074-13.9-2.038-1.178-21.98-12.69a48.228,48.228,0,0,1-5.021-3.329,7.563,7.563,0,0,1-2.427-2.907C365.613,250.38,367.341,246.62,372.006,243.928Z" transform="translate(-354.401 -233.339)" opacity="0.249"/>
        <path id="Path_85" data-name="Path 85" d="M372.5,244.307h0a24.306,24.306,0,0,1,12.2-2.941,19.636,19.636,0,0,1,8.518,2.021c.048.025,1.023.583,1.068.61l23.256,13.427,1.974,1.14,21.222,12.252c.23.133,4.857,2.881,4.96,3.079a7.522,7.522,0,0,1,2.562,2.681c1.633,3.056.047,6.736-4.532,9.378h0a24.269,24.269,0,0,1-12.194,2.94,19.614,19.614,0,0,1-8.52-2.021c-.048-.025-1.025-.583-1.07-.608l-23.256-13.427-1.973-1.14-21.222-12.252c-.23-.133-4.858-2.881-4.961-3.081a7.514,7.514,0,0,1-2.561-2.679C366.332,250.631,367.918,246.951,372.5,244.307Z" transform="translate(-353.887 -233.005)" opacity="0.275"/>
        <path id="Path_86" data-name="Path 86" d="M422.287,285.5l-25.364-14.644-25.364-14.644c-5.118-2.956-4.477-8.117,1.433-11.527h0c5.909-3.412,14.849-3.784,19.967-.828L418.323,258.5l25.365,14.643c5.116,2.956,4.475,8.117-1.434,11.529h0C436.345,288.088,427.4,288.458,422.287,285.5Z" transform="translate(-353.378 -232.67)" opacity="0.3"/>
      </g>
      <path id="Path_87" data-name="Path 87" d="M429.424,288.684l-62.876-36.3c-6.344-3.662-5.548-10.06,1.776-14.29h0c7.326-4.228,18.406-4.688,24.749-1.026l62.876,36.3c6.344,3.662,5.55,10.06-1.776,14.288h0C446.848,291.888,435.768,292.346,429.424,288.684Z" transform="translate(-357.267 -234.595)" fill="#171717"/>
      <path id="Path_88" data-name="Path 88" d="M454.169,281.71h0c-7.326,4.23-18.406,4.688-24.749,1.026l-62.876-36.3c-2.544-1.469-3.92-3.38-4.207-5.411-.393,2.636.975,5.211,4.207,7.077l62.876,36.3c6.343,3.662,17.423,3.2,24.749-1.026h0c4.387-2.532,6.413-5.841,5.984-8.877C459.775,277.039,457.763,279.636,454.169,281.71Z" transform="translate(-357.263 -230.314)" fill="url(#radial-gradient-3)" style="mix-blend-mode: color-dodge;isolation: isolate"/>
      <g id="Group_256" data-name="Group 256" transform="translate(30.487 13.451)">
        <path id="Path_89" data-name="Path 89" d="M377.564,250.05a.3.3,0,0,1,.185-.26l12.12-7a.917.917,0,0,1,.456-.123.856.856,0,0,1,.458.115l5.433,3.135q2.192,1.265,2.321,2.447t-1.529,2.138a5.259,5.259,0,0,1-2.126.675,6.862,6.862,0,0,1-2.093-.078,1.573,1.573,0,0,1,.175,1.433,2.612,2.612,0,0,1-1.281,1.368,7.341,7.341,0,0,1-3.972.931,9.181,9.181,0,0,1-4.358-1.291l-5.6-3.234A.31.31,0,0,1,377.564,250.05Zm7.462,2.157a4.1,4.1,0,0,0,2.049.57,3.671,3.671,0,0,0,1.893-.465c.546-.317.813-.683.8-1.1s-.34-.808-.976-1.176L385.7,248.25l-3.76,2.173Zm5.511-3.4a4.077,4.077,0,0,0,1.936.58,3.252,3.252,0,0,0,1.763-.422c.521-.3.755-.631.7-.991s-.4-.728-1.051-1.1l-2.9-1.678-3.352,1.936Z" transform="translate(-377.564 -242.669)" fill="#fff"/>
        <path id="Path_90" data-name="Path 90" d="M386.851,254.809q-.122-1.552,2.484-3.059l7.579-4.373a.9.9,0,0,1,.457-.123.856.856,0,0,1,.458.113l1.724,1c.137.078.2.168.207.27s-.068.19-.2.27l-7.579,4.373c-.98.566-1.486,1.128-1.511,1.684s.388,1.085,1.25,1.581a5.209,5.209,0,0,0,2.739.723,6,6,0,0,0,2.919-.873l7.577-4.375a.92.92,0,0,1,.466-.118.9.9,0,0,1,.466.12l1.724.995c.138.08.2.168.2.265s-.078.185-.215.265l-7.577,4.373a9.985,9.985,0,0,1-5.286,1.441,10.834,10.834,0,0,1-5.21-1.524Q386.972,256.36,386.851,254.809Z" transform="translate(-371.382 -239.616)" fill="#fff"/>
        <path id="Path_91" data-name="Path 91" d="M395.949,261.7a.305.305,0,0,1,.185-.258l4.188-2.417,3.362-7.067a.953.953,0,0,1,.148-.152.763.763,0,0,1,.4-.09.817.817,0,0,1,.383.092l1.688.975a.406.406,0,0,1,.227.54l-2.251,4.933,8.565-1.29a2.135,2.135,0,0,1,.457-.013,1.033,1.033,0,0,1,.458.133l1.686.975a.277.277,0,0,1,.17.227c0,.087-.057.162-.168.227a.748.748,0,0,1-.26.087l-12.222,1.949-4.188,2.419a.855.855,0,0,1-.458.112.956.956,0,0,1-.458-.123l-1.723-1A.31.31,0,0,1,395.949,261.7Z" transform="translate(-365.319 -236.641)" fill="#fff"/>
      </g>
    </g>
    <g id="Group_258" data-name="Group 258" transform="translate(428.565 158.247)">
      <path id="Path_92" data-name="Path 92" d="M373.714,215.354a.832.832,0,0,1-.833-.833v-3.332a.833.833,0,0,1,1.666,0v3.332A.833.833,0,0,1,373.714,215.354Zm0-6.664a.832.832,0,0,1-.833-.833v-3.332a.833.833,0,0,1,1.666,0v3.332A.833.833,0,0,1,373.714,208.69Zm0-6.664a.832.832,0,0,1-.833-.833V197.86a.833.833,0,0,1,1.666,0v3.332A.833.833,0,0,1,373.714,202.026Zm0-6.664a.832.832,0,0,1-.833-.833V191.2a.833.833,0,0,1,1.666,0v3.332A.833.833,0,0,1,373.714,195.361Zm0-6.664a.832.832,0,0,1-.833-.833v-3.332a.833.833,0,0,1,1.666,0v3.332A.833.833,0,0,1,373.714,188.7Zm0-6.664a.832.832,0,0,1-.833-.833v-3.332a.833.833,0,0,1,1.666,0V181.2A.833.833,0,0,1,373.714,182.033Zm0-6.664a.832.832,0,0,1-.833-.833V171.2a.833.833,0,1,1,1.666,0v3.332A.833.833,0,0,1,373.714,175.369Zm0-6.664a.832.832,0,0,1-.833-.833V164.54a.833.833,0,0,1,1.666,0v3.332A.833.833,0,0,1,373.714,168.7Zm0-6.664a.832.832,0,0,1-.833-.833v-3.332a.833.833,0,0,1,1.666,0v3.332A.833.833,0,0,1,373.714,162.041Zm0-6.664a.832.832,0,0,1-.833-.833v-3.332a.833.833,0,0,1,1.666,0v3.332A.833.833,0,0,1,373.714,155.377Zm0-6.664a.832.832,0,0,1-.833-.833v-3.332a.833.833,0,1,1,1.666,0v3.332A.833.833,0,0,1,373.714,148.712Zm0-6.664a.832.832,0,0,1-.833-.833v-3.332a.833.833,0,0,1,1.666,0v3.332A.833.833,0,0,1,373.714,142.048Zm0-6.664a.832.832,0,0,1-.833-.833v-3.332a.833.833,0,1,1,1.666,0v3.332A.833.833,0,0,1,373.714,135.384Zm0-6.664a.832.832,0,0,1-.833-.833v-3.332a.833.833,0,0,1,1.666,0v3.332A.833.833,0,0,1,373.714,128.72Z" transform="translate(-372.881 -123.722)" fill="#bd2727"/>
    </g>
    <path id="Path_93" data-name="Path 93" d="M499.738,152.519l16.77,9.683a2.763,2.763,0,0,0,2.5.005.762.762,0,0,0-.007-1.443l-16.772-9.683a2.763,2.763,0,0,0-2.5,0A.761.761,0,0,0,499.738,152.519Zm15.056,10.673-16.77-9.683a2.763,2.763,0,0,0-2.5-.005.763.763,0,0,0,.007,1.444l16.772,9.683a2.758,2.758,0,0,0,2.5,0A.761.761,0,0,0,514.794,163.192Zm-4.205,2.427-16.77-9.681a2.762,2.762,0,0,0-2.5-.005.761.761,0,0,0,.008,1.443l16.77,9.683a2.767,2.767,0,0,0,2.5.005A.763.763,0,0,0,510.588,165.619Z" transform="translate(134.224 52.546)" fill="#a56ef4"/>
    <g id="Group_264" data-name="Group 264" transform="translate(442.397 187.913)">
      <g id="Group_259" data-name="Group 259" transform="translate(0 16.535)">
        <path id="Path_94" data-name="Path 94" d="M502.856,357.168,381.183,286.921,614.632,151.453,736.3,221.7Z" transform="translate(-381.183 -151.453)" opacity="0.02"/>
        <path id="Path_95" data-name="Path 95" d="M502.453,355.213,382.481,285.947,613.073,152.129l119.972,69.266Z" transform="translate(-380.319 -151.003)" opacity="0.045"/>
        <path id="Path_96" data-name="Path 96" d="M502.05,353.258,383.778,284.974,611.514,152.8l118.272,68.284Z" transform="translate(-379.455 -150.553)" opacity="0.071"/>
        <path id="Path_97" data-name="Path 97" d="M501.647,351.3,385.076,284l224.879-130.52,116.572,67.3Z" transform="translate(-378.59 -150.103)" opacity="0.096"/>
        <path id="Path_98" data-name="Path 98" d="M501.245,349.348,386.374,283.027,608.4,154.157l114.871,66.321Z" transform="translate(-377.726 -149.653)" opacity="0.122"/>
        <path id="Path_99" data-name="Path 99" d="M500.842,347.393,387.671,282.054,606.838,154.832l113.171,65.339Z" transform="translate(-376.862 -149.202)" opacity="0.147"/>
        <path id="Path_100" data-name="Path 100" d="M500.439,345.438,388.969,281.08l216.31-125.572,111.471,64.358Z" transform="translate(-375.998 -148.752)" opacity="0.173"/>
        <path id="Path_101" data-name="Path 101" d="M500.037,343.483l-109.77-63.376L603.72,156.184,713.49,219.56Z" transform="translate(-375.134 -148.302)" opacity="0.198"/>
        <path id="Path_102" data-name="Path 102" d="M499.634,341.528l-108.07-62.394,210.6-122.274,108.07,62.394Z" transform="translate(-374.269 -147.852)" opacity="0.224"/>
        <path id="Path_103" data-name="Path 103" d="M499.231,339.573,392.862,278.16,600.6,157.536l106.37,61.413Z" transform="translate(-373.405 -147.402)" opacity="0.249"/>
        <path id="Path_104" data-name="Path 104" d="M498.829,337.618,394.159,277.187,599.043,158.211l104.669,60.431Z" transform="translate(-372.541 -146.952)" opacity="0.275"/>
        <path id="Path_105" data-name="Path 105" d="M498.426,335.663,395.457,276.214,597.484,158.887l102.969,59.449Z" transform="translate(-371.677 -146.502)" opacity="0.3"/>
      </g>
      <path id="Path_106" data-name="Path 106" d="M502.073,342.488,384.669,274.7,610.946,143.377l117.4,67.783Z" transform="translate(-378.862 -140.297)" fill="#171717"/>
      <path id="Path_107" data-name="Path 107" d="M621.974,227.871l-117.4-67.783,31.854-18.56,117.4,67.783Z" transform="translate(-299.004 -141.528)" fill="#5e000d"/>
      <path id="Path_108" data-name="Path 108" d="M471.441,261.918l-32.708-18.883c-3.174-1.833-2.776-5.033.89-7.151h0c3.667-2.116,9.211-2.346,12.385-.513l32.706,18.883c3.175,1.833,2.777,5.035-.888,7.151h0C480.159,263.523,474.615,263.753,471.441,261.918Z" transform="translate(-344.28 -79.85)" fill="#ab1919"/>
      <path id="Path_109" data-name="Path 109" d="M449.726,235.286c3.091,1.784,3.105,4.678.035,6.453a12.371,12.371,0,0,1-11.176-.02L407.742,223.91c-3.092-1.784-3.107-4.68-.035-6.453a12.368,12.368,0,0,1,11.174.02l30.845,17.808Zm1.066-.616-30.843-17.808a14.721,14.721,0,0,0-13.317-.023c-3.665,2.116-3.647,5.558.042,7.689l30.845,17.807a14.712,14.712,0,0,0,13.315.025c3.667-2.116,3.647-5.558-.042-7.689Z" transform="translate(-366.056 -92.422)" fill="#ab1919"/>
      <path id="Path_110" data-name="Path 110" d="M530.084,175.672l-18.989,10.962L491.75,175.466,510.738,164.5l19.346,11.169Zm3.21,0-22.566-13.028-22.19,12.812L511.1,188.489l22.19-12.812Z" transform="translate(-309.682 -127.461)" fill="red"/>
      <path id="Path_111" data-name="Path 111" d="M554.1,197.426l-38.524-22.242,1.564-.9,38.524,22.242Z" transform="translate(-291.673 -119.714)" fill="red"/>
      <path id="Path_112" data-name="Path 112" d="M525.28,270.228,415.393,206.785l.493-.285,109.887,63.443Z" transform="translate(-358.398 -98.255)" fill="#c91d1d"/>
      <path id="Path_113" data-name="Path 113" d="M551.418,198.974l-38.524-22.242,1.564-.9,38.524,22.242Z" transform="translate(-293.459 -118.683)" fill="red"/>
      <path id="Path_114" data-name="Path 114" d="M536.073,193.263l-25.905-14.956,1.564-.9,25.905,14.956Z" transform="translate(-295.276 -117.634)" fill="red"/>
      <path id="Path_119" data-name="Path 119" d="M481.567,203.683l-18.989,10.964-19.344-11.169,18.989-10.964,19.344,11.169Zm3.211.007-22.566-13.03-22.19,12.812L462.587,216.5l22.19-12.81Z" transform="translate(-341.995 -108.805)" fill="red"/>
      <path id="Path_120" data-name="Path 120" d="M505.584,225.437,467.06,203.2l1.564-.9,38.524,22.242Z" transform="translate(-323.987 -101.058)" fill="red"/>
      <path id="Path_121" data-name="Path 121" d="M502.9,226.985l-38.524-22.242,1.564-.9,38.524,22.242Z" transform="translate(-325.773 -100.026)" fill="red"/>
      <path id="Path_122" data-name="Path 122" d="M487.556,221.275l-25.905-14.956,1.564-.9,25.905,14.956Z" transform="translate(-327.589 -98.978)" fill="red"/>
      <g id="Group_260" data-name="Group 260" transform="translate(279.789 89.276)">
        <path id="Path_123" data-name="Path 123" d="M551.127,201.818c-2.664-1.539-2.677-4.033-.03-5.563a10.66,10.66,0,0,1,9.633.018c2.666,1.538,2.679,4.034.032,5.561A10.663,10.663,0,0,1,551.127,201.818Zm8.918-5.15a9.145,9.145,0,0,0-8.258-.015c-2.269,1.311-2.257,3.45.027,4.768a9.142,9.142,0,0,0,8.257.015C562.341,200.125,562.33,197.988,560.046,196.668Z" transform="translate(-549.121 -195.114)" fill="#c91d1d"/>
        <path id="Path_124" data-name="Path 124" d="M555.513,198.805l1.379,0c.536,0,.971-.25.97-.56s-.438-.563-.976-.563l-1.38,0,0-.8c0-.31-.438-.561-.976-.563s-.971.25-.97.56l0,.8-1.378,0c-.538,0-.973.25-.971.56a.5.5,0,0,0,.288.4,1.405,1.405,0,0,0,.688.165l1.38,0,0,.8a.487.487,0,0,0,.287.4,1.4,1.4,0,0,0,.688.167c.538,0,.973-.25.971-.56Z" transform="translate(-547.728 -194.31)" fill="#c91d1d"/>
      </g>
      <g id="Group_262" data-name="Group 262" transform="translate(199.133 135.842)">
        <path id="Path_127" data-name="Path 127" d="M502.715,229.768c-2.664-1.538-2.677-4.033-.03-5.561a10.66,10.66,0,0,1,9.633.017c2.666,1.538,2.679,4.033.032,5.563A10.664,10.664,0,0,1,502.715,229.768Zm8.918-5.148a9.135,9.135,0,0,0-8.258-.015c-2.269,1.31-2.257,3.449.027,4.768a9.142,9.142,0,0,0,8.257.015C513.929,228.077,513.918,225.938,511.634,224.62Z" transform="translate(-500.709 -223.065)" fill="#c91d1d"/>
        <path id="Path_128" data-name="Path 128" d="M507.1,226.756l1.379,0c.536,0,.971-.25.97-.56s-.438-.563-.976-.563l-1.379,0,0-.8c0-.31-.438-.563-.976-.563s-.971.25-.97.56l0,.8-1.378,0c-.538,0-.973.25-.971.561a.492.492,0,0,0,.288.4,1.386,1.386,0,0,0,.688.167l1.38,0,0,.8a.5.5,0,0,0,.288.4,1.4,1.4,0,0,0,.688.165c.538,0,.973-.248.971-.56Z" transform="translate(-499.316 -222.26)" fill="#c91d1d"/>
      </g>
      <path id="Path_129" data-name="Path 129" d="M546.018,160.668,531.2,152.115l1.5-1.826c.163-.2.092-.438-.18-.595L528.2,147.2a1.413,1.413,0,0,0-1.279,0,.39.39,0,0,0,0,.74l3.86,2.227-8.608,10.494c-.163.2-.09.437.182.595l1.376.793c-.093-.007-.185-.017-.283-.017-1.316,0-2.381.613-2.377,1.373s1.076,1.379,2.392,1.381,2.382-.611,2.378-1.373a.8.8,0,0,0-.028-.163l2.986,1.724c-.093-.007-.187-.017-.283-.017-1.316,0-2.381.611-2.378,1.373s1.076,1.378,2.393,1.381,2.382-.613,2.377-1.373a.786.786,0,0,0-.03-.163l.638.368a1.413,1.413,0,0,0,1.279,0,.39.39,0,0,0,0-.74l-8.7-5.026,1.756-2.141,10.629,6.136a3.046,3.046,0,0,0,2.4.152l6.832-2.544C546.737,162,546.886,161.17,546.018,160.668Z" transform="translate(-288.009 -137.851)" fill="url(#linear-gradient-6)"/>
      <path id="Path_130" data-name="Path 130" d="M540.566,158.551a12.919,12.919,0,0,1-11.689-.022c-3.239-1.869-3.255-4.891-.037-6.749a12.919,12.919,0,0,1,11.689.022C543.768,153.671,543.785,156.694,540.566,158.551Z" transform="translate(-284.439 -135.624)"/>
      <g id="Group_263" data-name="Group 263" transform="translate(245.614 16.765)">
        <path id="Path_131" data-name="Path 131" d="M534.514,154.7a.861.861,0,0,1,.382.85,1.33,1.33,0,0,1-.731.833,3.054,3.054,0,0,1-.951.352,4.083,4.083,0,0,1-1.071.065,5,5,0,0,1-1.13-.217,5.618,5.618,0,0,1-1.13-.5,3.17,3.17,0,0,1-1.018-.846,1.19,1.19,0,0,1-.243-.9l1.573-.1a.831.831,0,0,0,.1.6,1.792,1.792,0,0,0,.666.576,2.62,2.62,0,0,0,1.08.368,1.632,1.632,0,0,0,.973-.222c.318-.183.45-.392.393-.621s-.317-.478-.778-.745l-.258-.15.918-.53.286.165a2.57,2.57,0,0,0,1.138.367,1.682,1.682,0,0,0,.961-.192c.25-.145.352-.3.3-.473a.974.974,0,0,0-.492-.495,2.736,2.736,0,0,0-.955-.328,3.626,3.626,0,0,0-1.091,0l.088-.946a3.615,3.615,0,0,1,.75-.007,6.027,6.027,0,0,1,.816.132,6.782,6.782,0,0,1,.825.253,5.462,5.462,0,0,1,.77.367,3.085,3.085,0,0,1,.74.565,1.358,1.358,0,0,1,.34.576.726.726,0,0,1-.075.545,1.32,1.32,0,0,1-.513.471,2.707,2.707,0,0,1-.607.255,3.475,3.475,0,0,1-.69.122,3.641,3.641,0,0,1-.713-.02A2.736,2.736,0,0,1,534.514,154.7Z" transform="translate(-528.608 -151.591)" fill="#fff"/>
      </g>
      <path id="Path_132" data-name="Path 132" d="M580.539,185.523l5.779.01c.5,0,.908-.233.9-.521s-.408-.525-.91-.526l-5.78-.01-.018-3.335c0-.29-.408-.525-.91-.526s-.908.233-.9.521l.018,3.337-5.779-.01c-.5,0-.906.233-.9.521a.46.46,0,0,0,.268.372,1.328,1.328,0,0,0,.643.155l5.778.01.018,3.337a.455.455,0,0,0,.268.37,1.3,1.3,0,0,0,.641.155c.5,0,.908-.233.9-.521Z" transform="translate(-254.069 -115.497)" fill="#e6e7e8"/>
      <path id="Path_133" data-name="Path 133" d="M502.073,315.449l-115.6-67.574-1.8,1.041,117.4,67.783L733.432,182.305l-1.8-.208Z" transform="translate(-378.862 -114.508)" fill="url(#radial-gradient-4)" style="mix-blend-mode: color-dodge;isolation: isolate"/>
    </g>
    <g id="Group_289" data-name="Group 289" transform="translate(289.275 78.052)" style="mix-blend-mode: screen;isolation: isolate">
      <g id="Group_268" data-name="Group 268" transform="translate(212.507 44.946)">
        <path id="Path_153" data-name="Path 153" d="M566.208,149.321l-68.394,39.488-77.555-44.776,68.394-39.488,77.555,44.776Zm3.43.007-81-46.762-71.814,41.461,81,46.764,71.814-41.463Z" transform="translate(-416.828 -102.565)" fill="#444"/>
      </g>
      <g id="Group_269" data-name="Group 269" transform="translate(169.252 86.537)">
        <path id="Path_154" data-name="Path 154" d="M442.572,145.952l-19.8,11.431L394.3,140.941l19.8-11.431,28.479,16.442Zm3.43.007-31.919-18.43-23.218,13.4,31.921,18.43L446,145.959Z" transform="translate(-390.865 -127.529)" fill="#444"/>
        <path id="Path_155" data-name="Path 155" d="M463.246,157.889l-19.8,11.429-28.479-16.442,19.8-11.431,28.479,16.444Zm3.43.005-31.919-18.428-23.218,13.4L443.46,171.3l23.216-13.4Z" transform="translate(-377.096 -119.579)" fill="#444"/>
        <path id="Path_156" data-name="Path 156" d="M483.92,169.825l-19.8,11.429-28.477-16.442,19.8-11.429,28.479,16.442Zm3.43,0L455.431,151.4l-23.218,13.4,31.921,18.43,23.216-13.4Z" transform="translate(-363.326 -111.629)" fill="#444"/>
      </g>
      <g id="Group_270" data-name="Group 270" transform="translate(149.866 109.317)">
        <path id="Path_157" data-name="Path 157" d="M479.735,201.047,379.229,143.02l3.149-1.818,100.506,58.027Z" transform="translate(-379.229 -141.202)" fill="#444"/>
      </g>
      <g id="Group_271" data-name="Group 271" transform="translate(140.869 114.511)">
        <path id="Path_158" data-name="Path 158" d="M474.334,204.165,373.828,146.138l3.149-1.818,100.506,58.027Z" transform="translate(-373.828 -144.32)" fill="#444"/>
      </g>
      <g id="Group_272" data-name="Group 272" transform="translate(131.721 119.793)">
        <path id="Path_159" data-name="Path 159" d="M421.156,179.8l-52.818-30.495,3.149-1.818,52.818,30.495Z" transform="translate(-368.338 -147.49)" fill="#444"/>
      </g>
      <g id="Group_273" data-name="Group 273" transform="translate(38.165 178.085)">
        <path id="Path_160" data-name="Path 160" d="M324.5,189.683a2.311,2.311,0,0,1-.816-1.564c-.015-.328.458-.59,1.026-.59a10.065,10.065,0,0,0,2.219-.243,2.038,2.038,0,0,0,1.429-.025c.375-.217.5-.506.32-.7,1.488-.946,2.186-2.079.058-3.307a5.606,5.606,0,0,0-5.729.033,1.671,1.671,0,0,0-1.21.185.493.493,0,0,0-.047.825,2.246,2.246,0,0,0-.418,1.281c0,.328-.455.6-1.023.593a8.55,8.55,0,0,1-2.711-.471,4.54,4.54,0,0,0-3.52.235l-1.651.955c-.322.185-.32.485,0,.671l8.847,5.108a1.288,1.288,0,0,0,1.163,0l1.651-.955C325.04,191.166,325.175,190.321,324.5,189.683Z" transform="translate(-312.183 -182.479)" fill="#444"/>
      </g>
      <g id="Group_274" data-name="Group 274" transform="translate(124.441 225.978)">
        <path id="Path_161" data-name="Path 161" d="M376.4,218.4a5.182,5.182,0,0,0,.613-.418l2.163.3a3.982,3.982,0,0,0,.848-1.193l-1.9-.675a2.092,2.092,0,0,0,0-1.1l1.888-.666a4.06,4.06,0,0,0-.861-1.2l-2.159.295a5.246,5.246,0,0,0-.616-.421,6.61,6.61,0,0,0-.731-.357l.512-1.246a12.361,12.361,0,0,0-2.071-.5l-1.155,1.091a10.814,10.814,0,0,0-1.9,0l-1.166-1.095a12.094,12.094,0,0,0-2.066.49l.525,1.248a6.242,6.242,0,0,0-.726.355,5.2,5.2,0,0,0-.613.418l-2.163-.3a4.043,4.043,0,0,0-.848,1.193l1.9.675a2.092,2.092,0,0,0,.007,1.1l-1.889.666a4.058,4.058,0,0,0,.861,1.2l2.159-.295a5.272,5.272,0,0,0,.618.421,6.445,6.445,0,0,0,.73.357l-.512,1.246a12.2,12.2,0,0,0,2.071.5l1.156-1.091a10.633,10.633,0,0,0,1.9,0l1.166,1.095A12.056,12.056,0,0,0,376.2,220l-.525-1.248A6.248,6.248,0,0,0,376.4,218.4Zm-6.161-1.526a1.075,1.075,0,0,1-.01-2.036,3.9,3.9,0,0,1,3.525,0,1.076,1.076,0,0,1,.012,2.038A3.9,3.9,0,0,1,370.237,216.875Z" transform="translate(-363.968 -211.225)" fill="#444"/>
      </g>
      <g id="Group_275" data-name="Group 275" transform="translate(64.39 195.556)">
        <path id="Path_162" data-name="Path 162" d="M327.924,195.789l2.7,1.559,4.89-2.824-2.7-1.559Zm4.092,2.362,2.7,1.559,8-4.62-2.7-1.559Zm15.2-4.053-11.112,6.416,2.7,1.559,11.112-6.416Z" transform="translate(-327.924 -192.965)" fill="#444"/>
      </g>
      <g id="Group_276" data-name="Group 276" transform="translate(98.876 209.306)">
        <path id="Path_163" data-name="Path 163" d="M361.68,205.028a6.642,6.642,0,0,0-4.282-.613c.451-.843.1-1.8-1.063-2.472a6.651,6.651,0,0,0-6.016-.01c-3.027,1.746-1.078,7.192-1.078,7.192s9.431,1.125,12.459-.623C363.356,207.545,363.347,205.991,361.68,205.028Z" transform="translate(-348.623 -201.218)" fill="#444"/>
      </g>
      <g id="Group_285" data-name="Group 285">
        <g id="Group_277" data-name="Group 277" transform="translate(290.986 9.342)">
          <path id="Path_164" data-name="Path 164" d="M472.881,82.936l16.8,9.7a2.763,2.763,0,0,0,2.5,0c.69-.4.686-1.045-.008-1.446l-16.8-9.7a2.772,2.772,0,0,0-2.506,0A.763.763,0,0,0,472.881,82.936Zm15.084,10.691-16.8-9.7a2.774,2.774,0,0,0-2.5,0,.763.763,0,0,0,.008,1.446l16.8,9.7a2.767,2.767,0,0,0,2.506,0A.764.764,0,0,0,487.966,93.627Zm-4.213,2.432-16.8-9.7a2.769,2.769,0,0,0-2.5,0,.763.763,0,0,0,.008,1.446l16.8,9.7a2.769,2.769,0,0,0,2.5,0A.763.763,0,0,0,483.752,96.06Z" transform="translate(-463.933 -81.194)" fill="#444"/>
        </g>
        <g id="Group_278" data-name="Group 278">
          <path id="Path_165" data-name="Path 165" d="M415.29,328.009,295.231,258.692c-7.905-4.565-7.947-11.969-.09-16.5l282.7-163.215c7.857-4.537,20.682-4.513,28.587.052l120.059,69.315c7.907,4.565,7.947,11.969.09,16.505l-282.7,163.215C436.021,332.6,423.2,332.574,415.29,328.009ZM605.285,79.684c-7.274-4.2-19.073-4.222-26.3-.048L296.289,242.85c-7.229,4.173-7.191,10.986.082,15.184L416.43,327.351c7.274,4.2,19.073,4.22,26.3.047l282.7-163.213c7.229-4.173,7.192-10.986-.082-15.186Z" transform="translate(-289.275 -75.587)" fill="#444"/>
        </g>
        <g id="Group_279" data-name="Group 279" transform="translate(411.528 80.085)">
          <path id="Path_166" data-name="Path 166" d="M539.52,124.592c0,.516-.718.933-1.611.931s-1.619-.421-1.623-.936.72-.933,1.613-.931S539.518,124.078,539.52,124.592Z" transform="translate(-536.286 -123.656)" fill="#444"/>
        </g>
        <g id="Group_283" data-name="Group 283" transform="translate(412.031 73.549)">
          <g id="Group_280" data-name="Group 280">
            <path id="Path_167" data-name="Path 167" d="M536.853,119.733c-.088,0-.175.007-.265.007l.005.933c.09,0,.177-.007.265-.007,6.689.012,12.145,3.164,12.167,7.024,0,.012,0,.022,0,.032l1.618,0,0-.032C550.618,123.318,544.432,119.746,536.853,119.733Z" transform="translate(-536.588 -119.733)" fill="#444"/>
          </g>
          <g id="Group_281" data-name="Group 281" transform="translate(0.02 3.734)">
            <path id="Path_168" data-name="Path 168" d="M536.865,121.974c-.09,0-.175.013-.265.015l.005.935c.09,0,.175-.015.267-.015,3.12,0,5.668,1.476,5.676,3.277,0,.012-.005.022-.005.032l1.618,0c0-.012.005-.02.005-.032C544.154,123.873,540.879,121.982,536.865,121.974Z" transform="translate(-536.6 -121.974)" fill="#444"/>
          </g>
          <g id="Group_282" data-name="Group 282" transform="translate(0.01 1.868)">
            <path id="Path_169" data-name="Path 169" d="M536.859,120.854c-.088,0-.175.005-.265.007l.005.933c.09,0,.177-.007.265-.007,4.9.008,8.907,2.321,8.923,5.151,0,.01,0,.02,0,.032l1.618,0,0-.03C547.385,123.595,542.655,120.864,536.859,120.854Z" transform="translate(-536.594 -120.854)" fill="#444"/>
          </g>
        </g>
        <g id="Group_284" data-name="Group 284" transform="translate(332.619 34.033)">
          <path id="Path_170" data-name="Path 170" d="M537.386,125.8l-48.463-27.98,3.135-1.81L540.521,124Z" transform="translate(-488.923 -96.015)" fill="#444"/>
        </g>
      </g>
      <g id="Group_286" data-name="Group 286" transform="translate(101.824 151.351)">
        <path id="Path_171" data-name="Path 171" d="M402.713,209.472l-47.675-27.525c-6.166-3.56-6.2-9.336-.07-12.873s16.132-3.52,22.3.04l47.675,27.525c6.166,3.56,6.2,9.336.07,12.873S408.879,213.033,402.713,209.472ZM375.557,170.1c-5.218-3.012-13.681-3.027-18.868-.033s-5.158,7.88.06,10.893l47.674,27.525c5.218,3.014,13.683,3.029,18.868.035s5.16-7.88-.058-10.893Z" transform="translate(-350.393 -166.432)" fill="#444"/>
      </g>
      <g id="Group_287" data-name="Group 287" transform="translate(327.968 111.608)">
        <path id="Path_172" data-name="Path 172" d="M486.607,152.545a.817.817,0,0,1-.476-.661c0-.516.718-.933,1.611-.931l12.938.023-.042-7.469c0-.515.718-.931,1.613-.93s1.618.42,1.621.936l.052,9.336-16.172-.03A2.343,2.343,0,0,1,486.607,152.545Z" transform="translate(-486.131 -142.577)" fill="#444"/>
      </g>
      <g id="Group_288" data-name="Group 288" transform="translate(231.755 56.059)">
        <path id="Path_173" data-name="Path 173" d="M428.909,119.233a.817.817,0,0,1-.477-.661l-.052-9.336,16.172.03c.893,0,1.618.42,1.621.936s-.718.931-1.611.93l-12.937-.023.04,7.469c0,.516-.718.933-1.613.931A2.361,2.361,0,0,1,428.909,119.233Z" transform="translate(-428.381 -109.235)" fill="#444"/>
      </g>
    </g>
    <g id="Group_290" data-name="Group 290" transform="translate(357.577 71.885)" style="mix-blend-mode: screen;isolation: isolate">
      <path id="Path_174" data-name="Path 174" d="M371.407,102.912c0,1-1.389,1.8-3.114,1.8s-3.127-.813-3.132-1.809,1.388-1.8,3.114-1.8S371.4,101.915,371.407,102.912Z" transform="translate(-307.034 -52.425)" fill="#a7a7a7"/>
      <path id="Path_175" data-name="Path 175" d="M377.366,106.353c.005.995-1.388,1.8-3.114,1.8s-3.125-.811-3.132-1.808,1.389-1.8,3.114-1.8S377.361,105.357,377.366,106.353Z" transform="translate(-303.066 -50.134)" fill="#a7a7a7"/>
      <path id="Path_176" data-name="Path 176" d="M383.549,118.173,366.81,108.51l9.938-16.6-5.879-3.394a.522.522,0,0,1,0-.99,1.9,1.9,0,0,1,1.713,0l6.957,4.017-9.938,16.6,15.659,9.042a.521.521,0,0,1,0,.988A1.888,1.888,0,0,1,383.549,118.173Z" transform="translate(-305.936 -61.602)" fill="#a7a7a7"/>
      <path id="Path_177" data-name="Path 177" d="M385.574,111.962l-15.214-8.783a.523.523,0,0,1-.005-.99,1.9,1.9,0,0,1,1.713,0l14.519,8.383,11.181-4.165L375.909,93.79a.522.522,0,0,1-.005-.988,1.887,1.887,0,0,1,1.713,0l22.919,13.233a.57.57,0,0,1,.352.568.767.767,0,0,1-.543.511l-13.257,4.938A1.925,1.925,0,0,1,385.574,111.962Z" transform="translate(-303.81 -58.09)" fill="#a7a7a7"/>
      <path id="Path_178" data-name="Path 178" d="M361.379,129.133c-18.879-10.9-18.974-28.579-.213-39.412s49.381-10.776,68.261.125,18.974,28.577.213,39.41S380.256,140.032,361.379,129.133ZM427.15,91.159c-17.617-10.171-46.189-10.223-63.7-.115s-17.417,26.6.2,36.774,46.189,10.223,63.7.115S444.767,101.33,427.15,91.159Z" transform="translate(-319.026 -65.393)" fill="#a7a7a7"/>
      <path id="Path_179" data-name="Path 179" d="M357.223,137.815c-24.2-13.975-24.328-36.641-.275-50.529s63.311-13.815,87.515.16,24.327,36.639.275,50.526S381.425,151.788,357.223,137.815Zm83.826-48.4c-22.31-12.88-58.5-12.947-80.666-.147s-22.057,33.692.253,46.574,58.5,12.945,80.666.145S463.359,102.3,441.049,89.417Z" transform="translate(-324.466 -68.534)" fill="#a7a7a7" opacity="0.4"/>
      <path id="Path_180" data-name="Path 180" d="M352.785,147.079c-29.885-17.255-30.037-45.244-.338-62.391s78.177-17.059,108.064.2,30.037,45.241.338,62.39S382.672,164.333,352.785,147.079ZM455.959,87.512c-27.361-15.8-71.743-15.877-98.931-.18s-27.051,41.323.31,57.118,71.739,15.877,98.929.178S483.319,103.308,455.959,87.512Z" transform="translate(-330.272 -71.886)" fill="#a7a7a7" opacity="0.1"/>
    </g>
    <circle id="Ellipse_3" data-name="Ellipse 3" cx="16.66" cy="16.66" r="16.66" transform="translate(412.738 235.162)" fill="url(#radial-gradient-5)" style="mix-blend-mode: screen;isolation: isolate"/>
    <g id="Group_291" data-name="Group 291" transform="translate(428.565 263.207)">
      <path id="Path_181" data-name="Path 181" d="M373.714,276.966a.832.832,0,0,1-.833-.833V274.19a.833.833,0,1,1,1.666,0v1.943A.833.833,0,0,1,373.714,276.966Zm0-5.275a.832.832,0,0,1-.833-.833v-3.332a.833.833,0,0,1,1.666,0v3.332A.833.833,0,0,1,373.714,271.691Zm0-6.664a.832.832,0,0,1-.833-.833v-3.332a.833.833,0,1,1,1.666,0v3.332A.833.833,0,0,1,373.714,265.027Zm0-6.664a.832.832,0,0,1-.833-.833V254.2a.833.833,0,0,1,1.666,0v3.332A.833.833,0,0,1,373.714,258.363Zm0-6.664a.832.832,0,0,1-.833-.833v-3.332a.833.833,0,0,1,1.666,0v3.332A.833.833,0,0,1,373.714,251.7Zm0-6.664a.832.832,0,0,1-.833-.833V240.87a.833.833,0,0,1,1.666,0V244.2A.833.833,0,0,1,373.714,245.035Zm0-6.664a.832.832,0,0,1-.833-.833v-3.332a.833.833,0,0,1,1.666,0v3.332A.833.833,0,0,1,373.714,238.371Zm0-6.664a.832.832,0,0,1-.833-.833v-3.332a.833.833,0,0,1,1.666,0v3.332A.833.833,0,0,1,373.714,231.707Zm0-6.664a.832.832,0,0,1-.833-.833v-3.332a.833.833,0,1,1,1.666,0v3.332A.833.833,0,0,1,373.714,225.042Zm0-6.664a.832.832,0,0,1-.833-.833v-3.334a.833.833,0,0,1,1.666,0v3.334A.833.833,0,0,1,373.714,218.378Zm0-6.666a.832.832,0,0,1-.833-.833v-3.332a.833.833,0,1,1,1.666,0v3.332A.833.833,0,0,1,373.714,211.713Zm0-6.664a.832.832,0,0,1-.833-.833v-3.332a.833.833,0,1,1,1.666,0v3.332A.833.833,0,0,1,373.714,205.048Zm0-6.664a.832.832,0,0,1-.833-.833v-3.332a.833.833,0,0,1,1.666,0v3.332A.833.833,0,0,1,373.714,198.384Zm0-6.664a.832.832,0,0,1-.833-.833v-3.332a.833.833,0,0,1,1.666,0v3.332A.833.833,0,0,1,373.714,191.72Z" transform="translate(-372.881 -186.722)" fill="#6b1212"/>
    </g>
    <path id="Path_182" data-name="Path 182" d="M604.638,79.311c-7.274-4.2-19.073-4.222-26.3-.048l-282.7,163.215c-7.229,4.173-7.191,10.986.082,15.184l120.059,69.317c7.274,4.2,19.073,4.22,26.3.047l282.7-163.213c7.229-4.173,7.192-10.986-.082-15.186Z" transform="translate(11.646 8.838)" fill="url(#linear-gradient-7)" style="mix-blend-mode: color-dodge;isolation: isolate"/>
    <g id="Group_267" data-name="Group 267" transform="translate(546.728 227.043)">
      <g id="Group_265" data-name="Group 265" transform="translate(0 1.291)">
        <path id="Path_134" data-name="Path 134" d="M570.408,260.43l-124.2-71.708,49.357-28.334,124.2,71.708Z" transform="translate(-446.207 -160.388)" opacity="0.02"/>
        <path id="Path_135" data-name="Path 135" d="M569.421,259.044l-122.276-70.6,48.09-27.617,122.276,70.6Z" transform="translate(-445.582 -160.093)" opacity="0.045"/>
        <path id="Path_136" data-name="Path 136" d="M568.433,257.658l-120.35-69.484,46.823-26.9,120.35,69.484Z" transform="translate(-444.957 -159.799)" opacity="0.071"/>
        <path id="Path_137" data-name="Path 137" d="M567.445,256.273,449.021,187.9l45.557-26.185L613,230.088Z" transform="translate(-444.332 -159.504)" opacity="0.096"/>
        <path id="Path_138" data-name="Path 138" d="M566.458,254.887l-116.5-67.261,44.291-25.468,116.5,67.261Z" transform="translate(-443.708 -159.209)" opacity="0.122"/>
        <path id="Path_139" data-name="Path 139" d="M565.47,253.5,450.9,187.352,493.921,162.6,608.494,228.75Z" transform="translate(-443.083 -158.914)" opacity="0.147"/>
        <path id="Path_140" data-name="Path 140" d="M564.482,252.116,451.835,187.078l41.758-24.035L606.24,228.08Z" transform="translate(-442.458 -158.619)" opacity="0.173"/>
        <path id="Path_141" data-name="Path 141" d="M563.495,250.73,452.773,186.8l40.492-23.319,110.722,63.925Z" transform="translate(-441.833 -158.325)" opacity="0.198"/>
        <path id="Path_142" data-name="Path 142" d="M562.507,249.344l-108.8-62.813,39.225-22.6,108.8,62.813Z" transform="translate(-441.208 -158.03)" opacity="0.224"/>
        <path id="Path_143" data-name="Path 143" d="M561.519,247.959l-106.87-61.7,37.959-21.886,106.87,61.7Z" transform="translate(-440.584 -157.735)" opacity="0.249"/>
        <path id="Path_144" data-name="Path 144" d="M560.531,246.573l-104.945-60.59,36.692-21.169L597.224,225.4Z" transform="translate(-439.959 -157.44)" opacity="0.275"/>
        <path id="Path_145" data-name="Path 145" d="M559.544,245.187,456.525,185.709l35.426-20.453L594.97,224.734Z" transform="translate(-439.334 -157.146)" opacity="0.3"/>
      </g>
      <path id="Path_146" data-name="Path 146" d="M567.857,249.3l-115.6-66.741,39.752-22.951,115.6,66.741Z" transform="translate(-442.176 -159.613)"/>
      <path id="Path_147" data-name="Path 147" d="M505.226,179.981l-18.7,10.794-19.048-11,18.7-10.794,19.046,11Zm3.162.005L486.17,167.158l-21.85,12.615L486.54,192.6l21.848-12.615Z" transform="translate(-434.142 -154.588)" fill="red"/>
      <path id="Path_148" data-name="Path 148" d="M528.875,201.4l-37.931-21.9,1.54-.889,37.932,21.9Z" transform="translate(-416.41 -146.96)" fill="red"/>
      <path id="Path_149" data-name="Path 149" d="M526.234,202.925l-37.931-21.9,1.54-.889,37.931,21.9Z" transform="translate(-418.169 -145.944)"/>
      <path id="Path_150" data-name="Path 150" d="M511.124,197.3l-25.507-14.726,1.54-.889,25.507,14.726Z" transform="translate(-419.958 -144.912)" fill="red"/>
      <g id="Group_266" data-name="Group 266" transform="translate(130.067 65.532)" style="mix-blend-mode: screen;isolation: isolate">
        <path id="Path_151" data-name="Path 151" d="M526.252,205.548c-2.622-1.514-2.636-3.972-.03-5.476a10.5,10.5,0,0,1,9.486.017c2.624,1.514,2.637,3.972.03,5.478A10.5,10.5,0,0,1,526.252,205.548Zm8.782-5.07a9,9,0,0,0-8.132-.013c-2.234,1.29-2.222,3.4.027,4.693a8.991,8.991,0,0,0,8.13.015C537.294,203.883,537.283,201.777,535.033,200.478Z" transform="translate(-524.276 -198.948)" fill="red"/>
        <path id="Path_152" data-name="Path 152" d="M530.57,202.582l1.358,0c.53,0,.956-.245.955-.551s-.432-.553-.96-.555l-1.358,0-.005-.785c0-.3-.431-.553-.961-.555s-.956.247-.955.551l0,.785-1.358,0c-.528,0-.956.247-.955.551a.483.483,0,0,0,.283.392,1.365,1.365,0,0,0,.678.163l1.358,0,.005.783a.48.48,0,0,0,.281.392,1.375,1.375,0,0,0,.678.163c.53,0,.958-.245.956-.551Z" transform="translate(-522.905 -198.156)" fill="red"/>
      </g>
    </g>
  </g>
</svg>
